<svg version="1.2" xmlns="http://www.w3.org/2000/svg" viewBox="0 0 1256 1169" width="1256" height="1169">
	<title>Vector_2</title>
	<style>
		.s0 { fill: #8ab098 } 
	</style>
	<path fill-rule="evenodd" class="s0" d="m1256 610.8c-408.5-228.2-522.9-147.5-617.8-50.3 80.2-108 182.4-200.1 617.8-22.9 0 24.3 0 48.7 0 73.2zm-33.1 557.2c-178.4-359.3-378.3-703.2-584.7-607.5 178.9-90.5 399 126.2 617.8 495.8 0 37.1 0 74.4 0 111.7-11.2 0-22.2 0-33.1 0zm33.1-406.3c-341.7-315.4-495.8-282.5-617.8-201.2 108.3-88.4 240.1-151 617.8 122.7 0 26.2 0 52.3 0 78.5zm-278 406.3c-21-467.3-166.7-597.6-339.8-607.5 190.9-32.6 351.4 171.7 453.2 607.5-37.7 0-75.5 0-113.4 0zm-356.2 0c256-418.6 129-513.3 16.4-607.5 125.8 79 260.9 162.3 68.5 607.5-28.4 0-56.6 0-84.9 0zm168.7 0c126.5-463.9-12.2-545.9-152.3-607.5 156.3 39.1 297 134.4 243.2 607.5-30.3 0-60.5 0-90.9 0zm465.5-225.1c-259.8-371.8-463.3-461.3-617.8-382.4 136.4-77.3 315-64.8 617.8 284.6q0 48.9 0 97.8zm0-850.8c-405.2 145-692.2 290.8-617.8 468.4q-6-9.2-10.7-18.5c-83-168.3 231.2-349.8 577.7-543 16.9 0 34 0 50.8 0 0 30.9 0 62.1 0 93.1zm-617.8 468.4c-91.6-130.3-52.3-291.3 330.2-561.5 36.5 0 73.1 0 109.6 0-373.5 221.9-524.5 398.1-450.5 543q4.5 9.2 10.7 18.5zm236.6-561.5c-355.9 308-330.1 445.3-236.6 561.5-100.1-103.4-168.3-216.4 148.5-561.5 29.4 0 58.5 0 88.1 0zm381.2 304.3c-472.5 0.2-601 109.8-617.8 257.2-20.6-163 161.7-283.3 617.8-355.1q0 49 0 97.9zm0 161.9c-456.1-123.4-554.1-24.5-617.8 95.3 42.9-133.3 147.7-237.3 617.8-173.9q0 39.4 0 78.6zm-1132.5-466.2c156.1 420.8 313.5 636.1 514.7 561.5-15.6 9.4-31.4 17.1-47.4 23-186.6 61.1-378.2-215.3-590.8-550.5 0-11.3 0-22.7 0-34 41.3 0 82.2 0 123.5 0zm323.6 1169c366.1-348.6 285.5-486.8 191.1-607.5 102.2 107.4 212.9 220.7-100.1 607.5-30.4 0-60.8 0-91 0zm-447.1-804.4c362.3 358.7 503.1 291.6 638.2 196.9-120.6 100.4-230.5 206.2-638.2-108.6 0-29.6 0-58.9 0-88.3zm360.3-364.6c-16 465.5 111.7 545.4 277.9 561.5-184.3 20.5-319.7-102.4-387.6-561.5q54.8 0 109.7 0zm181.8 0c-157.4 434.9-38.4 500.2 96.1 561.5-149.9-41.5-273.9-106.3-184.3-561.5 29.2 0 58.6 0 88.2 0zm163.3 0c-270.6 378.4-176.6 470.6-67.2 561.5-121.1-77-231.4-152.4-15-561.5q41.1 0 82.2 0zm-705.4 161.3c243.5 361.1 429.9 482.3 590.8 423.2 12.1-4 24.3-9.4 36.4-16.4-148.2 87.8-319.2 82.2-627.2-297 0-36.7 0-73.1 0-109.8zm638.2 400.2q-5.5 3.5-11 6.6 5.6-3.2 11-6.6zm-401 607.5c419.7-250.1 491.5-438.9 411.9-588.7 89 173.7-125.1 378.9-543.2 588.7-35.2 0-70.7 0-105.9 0 0-17.6 0-35.2 0-52.7 441.1-169.1 745.9-355.5 638.2-554.8 91.2 134.8 121.5 300.7-287.8 607.5-37.7 0-75.5 0-113.2 0zm401-607.5q5.9 9.3 10.9 18.8-4.8-9.5-10.9-18.8zm-638.2 317.8c534.9-5 625-150.8 638.2-317.8 35 184.4-125.9 339.5-638.2 427.5 0-36.6 0-73.1 0-109.7zm0-181.8c511.8 142 567.4-1.4 638.2-136-46 150.4-107.1 294.7-638.2 224.1 0-29.2 0-58.8 0-88.1zm0-163.4c447.9 264.1 532.1 136.8 638.2 27.4-89.7 121.2-154.6 260-638.2 54.8q0-41.1 0-82.2z"/>
</svg>