<?xml version="1.0" encoding="UTF-8"?> <svg xmlns="http://www.w3.org/2000/svg" width="1200" height="755" viewBox="0 0 1200 755" fill="none"><g clip-path="url(#clip0_2_1412)"><path d="M1205 0H-5V755H1205V0Z" fill="url(#paint0_radial_2_1412)"></path><path d="M949.502 202.222L948.63 205.704L951.919 206.943L948.378 207.281L948.178 210.702L946.808 207.533L943.443 208.3L946.085 206.115L944.264 203.057L947.209 204.987L949.502 202.222Z" fill="white" stroke="#358AD6" stroke-width="0.09" stroke-miterlimit="10" stroke-linecap="round" stroke-linejoin="round"></path><path d="M1139.51 39.8334L1141.35 42.9235L1144.55 41.4868L1142.28 44.2169L1144.54 46.7909L1141.34 45.5007L1139.49 48.4187L1139.83 45.0069L1136.38 44.1181L1139.83 43.4109L1139.51 39.8334Z" fill="white" stroke="#358AD6" stroke-width="0.09" stroke-miterlimit="10" stroke-linecap="round" stroke-linejoin="round"></path><path d="M38.9548 223.738L37.4328 226.994L40.4227 228.838L36.8851 228.494L36.0285 231.81L35.2962 228.437L31.8477 228.545L34.8536 226.911L33.6563 223.56L36.1782 226.016L38.9548 223.738Z" fill="white" stroke="#358AD6" stroke-width="0.09" stroke-miterlimit="10" stroke-linecap="round" stroke-linejoin="round"></path><path d="M222.177 101.199L224.505 103.935L227.425 101.976L225.639 105.056L228.304 107.21L224.929 106.477L223.598 109.663L223.356 106.248L219.812 105.948L223.094 104.671L222.177 101.199Z" fill="white" stroke="#358AD6" stroke-width="0.09" stroke-miterlimit="10" stroke-linecap="round" stroke-linejoin="round"></path><path d="M82.3367 100.82L83.8524 104.075L87.1863 102.967L84.6485 105.458L86.6418 108.245L83.585 106.643L81.4547 109.36L82.1298 105.999L78.7959 104.77L82.2985 104.41L82.3367 100.82Z" fill="white" stroke="#358AD6" stroke-width="0.09" stroke-miterlimit="10" stroke-linecap="round" stroke-linejoin="round"></path><path d="M432.345 23.1661L433.144 26.6671L436.634 26.2816L433.631 28.1867L434.997 31.3277L432.345 29.1201L429.693 31.3277L431.055 28.1867L428.053 26.2816L431.552 26.6671L432.345 23.1661Z" fill="white" stroke="#358AD6" stroke-width="0.09" stroke-miterlimit="10" stroke-linecap="round" stroke-linejoin="round"></path><path d="M1006.93 35.7972L1006.86 39.3906L1010.35 39.8493L1006.97 40.9803L1007.55 44.357L1005.51 41.5792L1002.4 43.0892L1004.47 40.3654L1002.02 37.7978L1005.32 39.0083L1006.93 35.7972Z" fill="white" stroke="#358AD6" stroke-width="0.09" stroke-miterlimit="10" stroke-linecap="round" stroke-linejoin="round"></path><path d="M823.891 75.3821L825.334 78.6729L828.69 77.6376L826.098 80.0714L828.028 82.9035L825.006 81.231L822.818 83.8974L823.57 80.5556L820.261 79.2463L823.767 78.9724L823.891 75.3821Z" fill="white" stroke="#358AD6" stroke-width="0.09" stroke-miterlimit="10" stroke-linecap="round" stroke-linejoin="round"></path><path d="M1090.11 141.182L1089.52 144.727L1092.9 145.699L1089.39 146.317L1089.46 149.745L1087.85 146.693L1084.56 147.725L1087.01 145.339L1084.96 142.434L1088.05 144.122L1090.11 141.182Z" fill="white" stroke="#358AD6" stroke-width="0.09" stroke-miterlimit="10" stroke-linecap="round" stroke-linejoin="round"></path><path d="M145.651 112.176L146.709 118.602L153.134 119.663L146.709 120.72L145.651 127.146L144.594 120.72L138.168 119.663L144.594 118.602L145.651 112.176Z" fill="white" stroke="#358AD6" stroke-width="0.2" stroke-miterlimit="10" stroke-linecap="round" stroke-linejoin="round"></path><path d="M145.651 112.176L146.709 118.602L153.134 119.663L146.709 120.72L145.651 127.146L144.594 120.72L138.168 119.663L144.594 118.602L145.651 112.176Z" fill="white" stroke="#358AD6" stroke-width="0.2" stroke-miterlimit="10" stroke-linecap="round" stroke-linejoin="round"></path><path d="M145.651 112.176L146.709 118.602L153.134 119.663L146.709 120.72L145.651 127.146L144.594 120.72L138.168 119.663L144.594 118.602L145.651 112.176Z" fill="white" stroke="#358AD6" stroke-width="0.2" stroke-miterlimit="10" stroke-linecap="round" stroke-linejoin="round"></path><path d="M159.914 176.574L160.337 179.142L162.904 179.566L160.337 179.989L159.914 182.56L159.49 179.989L156.92 179.566L159.49 179.142L159.914 176.574Z" fill="white" stroke="#358AD6" stroke-width="0.08" stroke-miterlimit="10" stroke-linecap="round" stroke-linejoin="round"></path><path d="M198.618 169.413L199.041 171.981L201.611 172.404L199.041 172.828L198.618 175.399L198.194 172.828L195.625 172.404L198.194 171.981L198.618 169.413Z" fill="white" stroke="#358AD6" stroke-width="0.08" stroke-miterlimit="10" stroke-linecap="round" stroke-linejoin="round"></path><path d="M173.739 198.922L174.163 201.493L176.732 201.916L174.163 202.34L173.739 204.908L173.316 202.34L170.746 201.916L173.316 201.493L173.739 198.922Z" fill="white" stroke="#358AD6" stroke-width="0.08" stroke-miterlimit="10" stroke-linecap="round" stroke-linejoin="round"></path><path d="M117.168 249.892L117.592 252.463L120.162 252.887L117.592 253.31L117.168 255.878L116.745 253.31L114.175 252.887L116.745 252.463L117.168 249.892Z" fill="white" stroke="#358AD6" stroke-width="0.08" stroke-miterlimit="10" stroke-linecap="round" stroke-linejoin="round"></path><path d="M106.82 237.678L107.243 240.249L109.813 240.673L107.243 241.097L106.82 243.664L106.396 241.097L103.827 240.673L106.396 240.249L106.82 237.678Z" fill="white" stroke="#358AD6" stroke-width="0.08" stroke-miterlimit="10" stroke-linecap="round" stroke-linejoin="round"></path><path d="M165.33 43.6212L165.754 46.192L168.323 46.6157L165.754 47.0394L165.33 49.607L164.907 47.0394L162.337 46.6157L164.907 46.192L165.33 43.6212Z" fill="white" stroke="#358AD6" stroke-width="0.08" stroke-miterlimit="10" stroke-linecap="round" stroke-linejoin="round"></path><path d="M165.33 43.6212L165.754 46.192L168.323 46.6157L165.754 47.0394L165.33 49.607L164.907 47.0394L162.337 46.6157L164.907 46.192L165.33 43.6212Z" fill="white" stroke="#358AD6" stroke-width="0.08" stroke-miterlimit="10" stroke-linecap="round" stroke-linejoin="round"></path><path d="M165.33 43.6212L165.754 46.192L168.323 46.6157L165.754 47.0394L165.33 49.607L164.907 47.0394L162.337 46.6157L164.907 46.192L165.33 43.6212Z" fill="white" stroke="#358AD6" stroke-width="0.08" stroke-miterlimit="10" stroke-linecap="round" stroke-linejoin="round"></path><path d="M5.83277 355.019L6.25627 357.59L8.82274 358.013L6.25627 358.437L5.83277 361.005L5.40927 358.437L2.83643 358.013L5.40927 357.59L5.83277 355.019Z" fill="white" stroke="#358AD6" stroke-width="0.08" stroke-miterlimit="10" stroke-linecap="round" stroke-linejoin="round"></path><path d="M219.834 340.636L220.257 343.203L222.827 343.627L220.257 344.051L219.834 346.621L219.41 344.051L216.841 343.627L219.41 343.203L219.834 340.636Z" fill="white" stroke="#358AD6" stroke-width="0.08" stroke-miterlimit="10" stroke-linecap="round" stroke-linejoin="round"></path><path d="M126.228 36.2432L126.651 38.814L129.221 39.2345L126.651 39.6582L126.228 42.229L125.804 39.6582L123.234 39.2345L125.804 38.814L126.228 36.2432Z" fill="white" stroke="#358AD6" stroke-width="0.08" stroke-miterlimit="10" stroke-linecap="round" stroke-linejoin="round"></path><path d="M829.113 23.8319L829.537 26.3995L832.107 26.8232L829.537 27.2469L829.113 29.8145L828.69 27.2469L826.124 26.8232L828.69 26.3995L829.113 23.8319Z" fill="white" stroke="#358AD6" stroke-width="0.08" stroke-miterlimit="10" stroke-linecap="round" stroke-linejoin="round"></path><path d="M472.208 52.7799L472.632 55.3507L475.201 55.7744L472.632 56.1981L472.208 58.7658L471.785 56.1981L469.218 55.7744L471.785 55.3507L472.208 52.7799Z" fill="white" stroke="#358AD6" stroke-width="0.08" stroke-miterlimit="10" stroke-linecap="round" stroke-linejoin="round"></path><path d="M542.958 37.1766L543.382 39.7474L545.951 40.1679L543.382 40.5916L542.958 43.1624L542.538 40.5916L539.968 40.1679L542.538 39.7474L542.958 37.1766Z" fill="white" stroke="#358AD6" stroke-width="0.08" stroke-miterlimit="10" stroke-linecap="round" stroke-linejoin="round"></path><path d="M515.934 7.3716L516.354 9.94242L518.924 10.3629L516.354 10.7866L515.934 13.3574L515.51 10.7866L512.94 10.3629L515.51 9.94242L515.934 7.3716Z" fill="white" stroke="#358AD6" stroke-width="0.08" stroke-miterlimit="10" stroke-linecap="round" stroke-linejoin="round"></path><path d="M496.09 10.7866L496.513 13.3574L499.083 13.7811L496.513 14.2016L496.09 16.7725L495.666 14.2016L493.1 13.7811L495.666 13.3574L496.09 10.7866Z" fill="white" stroke="#358AD6" stroke-width="0.08" stroke-miterlimit="10" stroke-linecap="round" stroke-linejoin="round"></path><path d="M616.345 7.3716L616.768 9.94242L619.335 10.3629L616.768 10.7866L616.345 13.3574L615.921 10.7866L613.352 10.3629L615.921 9.94242L616.345 7.3716Z" fill="white" stroke="#358AD6" stroke-width="0.08" stroke-miterlimit="10" stroke-linecap="round" stroke-linejoin="round"></path><path d="M658.485 37.6003L658.908 40.1679L661.478 40.5916L658.908 41.0153L658.485 43.5861L658.061 41.0153L655.495 40.5916L658.061 40.1679L658.485 37.6003Z" fill="white" stroke="#358AD6" stroke-width="0.08" stroke-miterlimit="10" stroke-linecap="round" stroke-linejoin="round"></path><path d="M909.12 69.3963L909.544 71.9639L912.113 72.3876L909.544 72.8113L909.12 75.3821L908.697 72.8113L906.13 72.3876L908.697 71.9639L909.12 69.3963Z" fill="white" stroke="#358AD6" stroke-width="0.08" stroke-miterlimit="10" stroke-linecap="round" stroke-linejoin="round"></path><path d="M1197.41 134.412L1197.84 136.983L1200.41 137.407L1197.84 137.83L1197.41 140.398L1196.99 137.83L1194.42 137.407L1196.99 136.983L1197.41 134.412Z" fill="white" stroke="#358AD6" stroke-width="0.08" stroke-miterlimit="10" stroke-linecap="round" stroke-linejoin="round"></path><path d="M1069.9 59.5494L1070.32 62.1203L1072.89 62.5439L1070.32 62.9676L1069.9 65.5353L1069.47 62.9676L1066.91 62.5439L1069.47 62.1203L1069.9 59.5494Z" fill="white" stroke="#358AD6" stroke-width="0.08" stroke-miterlimit="10" stroke-linecap="round" stroke-linejoin="round"></path><path d="M885.993 127.197L886.417 129.764L888.986 130.188L886.417 130.612L885.993 133.183L885.573 130.612L883.003 130.188L885.573 129.764L885.993 127.197Z" fill="white" stroke="#358AD6" stroke-width="0.08" stroke-miterlimit="10" stroke-linecap="round" stroke-linejoin="round"></path><path d="M902.691 142.472L903.115 145.04L905.684 145.463L903.115 145.887L902.691 148.458L902.271 145.887L899.701 145.463L902.271 145.04L902.691 142.472Z" fill="white" stroke="#358AD6" stroke-width="0.08" stroke-miterlimit="10" stroke-linecap="round" stroke-linejoin="round"></path><path d="M1072.47 235.952L1072.89 238.523L1075.46 238.946L1072.89 239.37L1072.47 241.938L1072.04 239.37L1069.47 238.946L1072.04 238.523L1072.47 235.952Z" fill="white" stroke="#358AD6" stroke-width="0.08" stroke-miterlimit="10" stroke-linecap="round" stroke-linejoin="round"></path><path d="M1031.04 199.651L1031.46 202.222L1034.03 202.643L1031.46 203.066L1031.04 205.637L1030.62 203.066L1028.05 202.643L1030.62 202.222L1031.04 199.651Z" fill="white" stroke="#358AD6" stroke-width="0.08" stroke-miterlimit="10" stroke-linecap="round" stroke-linejoin="round"></path><path d="M974.785 160.958L975.208 163.529L977.778 163.953L975.208 164.377L974.785 166.944L974.361 164.377L971.795 163.953L974.361 163.529L974.785 160.958Z" fill="white" stroke="#358AD6" stroke-width="0.08" stroke-miterlimit="10" stroke-linecap="round" stroke-linejoin="round"></path><path d="M1174.39 210.556L1174.81 213.123L1177.38 213.547L1174.81 213.971L1174.39 216.542L1173.97 213.971L1171.4 213.547L1173.97 213.123L1174.39 210.556Z" fill="white" stroke="#358AD6" stroke-width="0.08" stroke-miterlimit="10" stroke-linecap="round" stroke-linejoin="round"></path><path d="M1092.47 192.786L1092.9 195.354L1095.47 195.778L1092.9 196.201L1092.47 198.772L1092.05 196.201L1089.48 195.778L1092.05 195.354L1092.47 192.786Z" fill="white" stroke="#358AD6" stroke-width="0.08" stroke-miterlimit="10" stroke-linecap="round" stroke-linejoin="round"></path><path d="M1062.67 179.387L1063.09 181.955L1065.66 182.379L1063.09 182.802L1062.67 185.37L1062.24 182.802L1059.67 182.379L1062.24 181.955L1062.67 179.387Z" fill="white" stroke="#358AD6" stroke-width="0.08" stroke-miterlimit="10" stroke-linecap="round" stroke-linejoin="round"></path><path d="M1115.74 285.419L1116.16 287.986L1118.73 288.41L1116.16 288.834L1115.74 291.404L1115.31 288.834L1112.74 288.41L1115.31 287.986L1115.74 285.419Z" fill="white" stroke="#358AD6" stroke-width="0.08" stroke-miterlimit="10" stroke-linecap="round" stroke-linejoin="round"></path><path d="M1129.86 330.728L1130.28 333.299L1132.85 333.723L1130.28 334.146L1129.86 336.714L1129.44 334.146L1126.87 333.723L1129.44 333.299L1129.86 330.728Z" fill="white" stroke="#358AD6" stroke-width="0.08" stroke-miterlimit="10" stroke-linecap="round" stroke-linejoin="round"></path><path d="M1060.22 336.654L1060.65 339.221L1063.22 339.645L1060.65 340.069L1060.22 342.639L1059.8 340.069L1057.23 339.645L1059.8 339.221L1060.22 336.654Z" fill="white" stroke="#358AD6" stroke-width="0.08" stroke-miterlimit="10" stroke-linecap="round" stroke-linejoin="round"></path><path d="M1013.95 231.807L1014.37 234.375L1016.94 234.799L1014.37 235.222L1013.95 237.793L1013.52 235.222L1010.95 234.799L1013.52 234.375L1013.95 231.807Z" fill="white" stroke="#358AD6" stroke-width="0.08" stroke-miterlimit="10" stroke-linecap="round" stroke-linejoin="round"></path><path d="M1002.96 254.922L1003.38 257.493L1005.95 257.917L1003.38 258.341L1002.96 260.908L1002.54 258.341L999.966 257.917L1002.54 257.493L1002.96 254.922Z" fill="white" stroke="#358AD6" stroke-width="0.08" stroke-miterlimit="10" stroke-linecap="round" stroke-linejoin="round"></path><path d="M1001.59 322.079L1002.02 324.647L1004.59 325.071L1002.02 325.494L1001.59 328.062L1001.17 325.494L998.603 325.071L1001.17 324.647L1001.59 322.079Z" fill="white" stroke="#358AD6" stroke-width="0.08" stroke-miterlimit="10" stroke-linecap="round" stroke-linejoin="round"></path><path d="M1186.31 81.3266L1186.73 83.8974L1189.3 84.3211L1186.73 84.7448L1186.31 87.3124L1185.88 84.7448L1183.31 84.3211L1185.88 83.8974L1186.31 81.3266Z" fill="white" stroke="#358AD6" stroke-width="0.08" stroke-miterlimit="10" stroke-linecap="round" stroke-linejoin="round"></path><path d="M1170.6 178.964L1171.03 181.531L1173.6 181.955L1171.03 182.379L1170.6 184.95L1170.18 182.379L1167.61 181.955L1170.18 181.531L1170.6 178.964Z" fill="white" stroke="#358AD6" stroke-width="0.08" stroke-miterlimit="10" stroke-linecap="round" stroke-linejoin="round"></path><path d="M1150.09 228.389L1150.52 230.96L1153.08 231.384L1150.52 231.807L1150.09 234.375L1149.67 231.807L1147.1 231.384L1149.67 230.96L1150.09 228.389Z" fill="white" stroke="#358AD6" stroke-width="0.08" stroke-miterlimit="10" stroke-linecap="round" stroke-linejoin="round"></path><path d="M1014.37 171.981L1014.79 174.552L1017.36 174.975L1014.79 175.399L1014.37 177.967L1013.95 175.399L1011.38 174.975L1013.95 174.552L1014.37 171.981Z" fill="white" stroke="#358AD6" stroke-width="0.08" stroke-miterlimit="10" stroke-linecap="round" stroke-linejoin="round"></path><path d="M1103.36 10.7898L1103.78 13.3606L1106.35 13.7843L1103.78 14.2048L1103.36 16.7757L1102.93 14.2048L1100.37 13.7843L1102.93 13.3606L1103.36 10.7898Z" fill="white" stroke="#358AD6" stroke-width="0.08" stroke-miterlimit="10" stroke-linecap="round" stroke-linejoin="round"></path><path d="M923.57 28.7569L923.994 31.3277L926.563 31.7514L923.994 32.1751L923.57 34.7427L923.147 32.1751L920.58 31.7514L923.147 31.3277L923.57 28.7569Z" fill="white" stroke="#358AD6" stroke-width="0.08" stroke-miterlimit="10" stroke-linecap="round" stroke-linejoin="round"></path><path d="M275.634 72.8113L276.058 75.3821L278.627 75.8026L276.058 76.2263L275.634 78.7972L275.211 76.2263L272.641 75.8026L275.211 75.3821L275.634 72.8113Z" fill="white" stroke="#358AD6" stroke-width="0.08" stroke-miterlimit="10" stroke-linecap="round" stroke-linejoin="round"></path><path d="M216.417 291.854L216.841 294.424L219.411 294.848L216.841 295.272L216.417 297.839L215.994 295.272L213.424 294.848L215.994 294.424L216.417 291.854Z" fill="white" stroke="#358AD6" stroke-width="0.08" stroke-miterlimit="10" stroke-linecap="round" stroke-linejoin="round"></path><path d="M60.6997 269.56L61.1232 272.131L63.6929 272.555L61.1232 272.976L60.6997 275.546L60.2762 272.976L57.7065 272.555L60.2762 272.131L60.6997 269.56Z" fill="white" stroke="#358AD6" stroke-width="0.08" stroke-miterlimit="10" stroke-linecap="round" stroke-linejoin="round"></path><path d="M39.8909 286.859L40.3144 289.429L42.8808 289.85L40.3144 290.274L39.8909 292.844L39.4642 290.274L36.8945 289.85L39.4642 289.429L39.8909 286.859Z" fill="white" stroke="#358AD6" stroke-width="0.08" stroke-miterlimit="10" stroke-linecap="round" stroke-linejoin="round"></path><path d="M352.428 37.3167L352.851 39.8876L355.418 40.3081L352.851 40.7318L352.428 43.3026L352.004 40.7318L349.435 40.3081L352.004 39.8876L352.428 37.3167Z" fill="white" stroke="#358AD6" stroke-width="0.08" stroke-miterlimit="10" stroke-linecap="round" stroke-linejoin="round"></path><path d="M87.6099 174.004L88.0334 176.574L90.603 176.998L88.0334 177.419L87.6099 179.989L87.1864 177.419L84.6167 176.998L87.1864 176.574L87.6099 174.004Z" fill="white" stroke="#358AD6" stroke-width="0.08" stroke-miterlimit="10" stroke-linecap="round" stroke-linejoin="round"></path><path d="M164.907 363.085L165.33 365.653L167.896 366.076L165.33 366.5L164.907 369.071L164.483 366.5L161.91 366.076L164.483 365.653L164.907 363.085Z" fill="white" stroke="#358AD6" stroke-width="0.08" stroke-miterlimit="10" stroke-linecap="round" stroke-linejoin="round"></path><path d="M26.5366 127.62L26.9601 130.188L29.5298 130.612L26.9601 131.036L26.5366 133.603L26.1131 131.036L23.5435 130.612L26.1131 130.188L26.5366 127.62Z" fill="white" stroke="#358AD6" stroke-width="0.08" stroke-miterlimit="10" stroke-linecap="round" stroke-linejoin="round"></path><path d="M232.052 25.3387L232.899 30.4803L238.038 31.3277L232.899 32.1751L232.052 37.3167L231.205 32.1751L226.065 31.3277L231.205 30.4803L232.052 25.3387Z" fill="white" stroke="#358AD6" stroke-width="0.16" stroke-miterlimit="10" stroke-linecap="round" stroke-linejoin="round"></path><path d="M1059.8 279.812L1060.65 284.95L1065.79 285.801L1060.65 286.648L1059.8 291.79L1058.96 286.648L1053.81 285.801L1058.96 284.95L1059.8 279.812Z" fill="white" stroke="#358AD6" stroke-width="0.16" stroke-miterlimit="10" stroke-linecap="round" stroke-linejoin="round"></path><path d="M252.326 229.119L253.173 234.257L258.312 235.104L253.173 235.952L252.326 241.097L251.479 235.952L246.339 235.104L251.479 234.257L252.326 229.119Z" fill="white" stroke="#358AD6" stroke-width="0.16" stroke-miterlimit="10" stroke-linecap="round" stroke-linejoin="round"></path><path d="M77.9487 320.353L78.7957 325.494L83.935 326.342L78.7957 327.189L77.9487 332.327L77.1017 327.189L71.9624 326.342L77.1017 325.494L77.9487 320.353Z" fill="white" stroke="#358AD6" stroke-width="0.16" stroke-miterlimit="10" stroke-linecap="round" stroke-linejoin="round"></path><path d="M763.14 10.7866L763.987 15.9283L769.123 16.7757L763.987 17.623L763.14 22.7647L762.296 17.623L757.15 16.7757L762.296 15.9283L763.14 10.7866Z" fill="white" stroke="#358AD6" stroke-width="0.16" stroke-miterlimit="10" stroke-linecap="round" stroke-linejoin="round"></path><path d="M160.337 270.812L161.713 279.165L170.065 280.541L161.713 281.918L160.337 290.274L158.962 281.918L150.609 280.541L158.962 279.165L160.337 270.812Z" fill="white" stroke="#358AD6" stroke-width="0.26" stroke-miterlimit="10" stroke-linecap="round" stroke-linejoin="round"></path><path d="M327.189 148.611L328.247 155.039L334.672 156.097L328.247 157.158L327.189 163.583L326.132 157.158L319.707 156.097L326.132 155.039L327.189 148.611Z" fill="white" stroke="#358AD6" stroke-width="0.2" stroke-miterlimit="10" stroke-linecap="round" stroke-linejoin="round"></path><path d="M1166.49 279.165L1167.54 285.591L1173.97 286.648L1167.54 287.709L1166.49 294.135L1165.43 287.709L1159 286.648L1165.43 285.591L1166.49 279.165Z" fill="white" stroke="#358AD6" stroke-width="0.2" stroke-miterlimit="10" stroke-linecap="round" stroke-linejoin="round"></path><path d="M988.171 97.3631L989.229 103.789L995.654 104.846L989.229 105.907L988.171 112.333L987.111 105.907L980.688 104.846L987.111 103.789L988.171 97.3631Z" fill="white" stroke="#358AD6" stroke-width="0.2" stroke-miterlimit="10" stroke-linecap="round" stroke-linejoin="round"></path><path d="M1130.5 105.904L1131.55 112.333L1137.98 113.39L1131.55 114.451L1130.5 120.873L1129.44 114.451L1123.01 113.39L1129.44 112.333L1130.5 105.904Z" fill="white" stroke="#358AD6" stroke-width="0.2" stroke-miterlimit="10" stroke-linecap="round" stroke-linejoin="round"></path><path d="M1049.51 210.113L1050.57 216.542L1056.99 217.599L1050.57 218.66L1049.51 225.082L1048.45 218.66L1042.02 217.599L1048.45 216.542L1049.51 210.113Z" fill="white" stroke="#358AD6" stroke-width="0.2" stroke-miterlimit="10" stroke-linecap="round" stroke-linejoin="round"></path><path d="M886.012 259.618L887.069 266.044L893.495 267.104L887.069 268.162L886.012 274.587L884.955 268.162L878.532 267.104L884.955 266.044L886.012 259.618Z" fill="white" stroke="#358AD6" stroke-width="0.2" stroke-miterlimit="10" stroke-linecap="round" stroke-linejoin="round"></path><path d="M40.3147 23.8414L41.3718 30.2701L47.7944 31.3277L41.3718 32.3885L40.3147 38.814L39.2543 32.3885L32.8286 31.3277L39.2543 30.2701L40.3147 23.8414Z" fill="white" stroke="#358AD6" stroke-width="0.2" stroke-miterlimit="10" stroke-linecap="round" stroke-linejoin="round"></path><path d="M28.4726 160.522L29.5298 166.944L35.9524 168.005L29.5298 169.063L28.4726 175.491L27.4123 169.063L20.9897 168.005L27.4123 166.944L28.4726 160.522Z" fill="white" stroke="#358AD6" stroke-width="0.2" stroke-miterlimit="10" stroke-linecap="round" stroke-linejoin="round"></path><path d="M1168.81 207.133C1185.47 164.026 1164.04 115.571 1120.95 98.9047C1077.87 82.2387 1029.43 103.673 1012.77 146.78C996.115 189.887 1017.54 238.343 1060.63 255.009C1103.71 271.675 1152.15 250.24 1168.81 207.133Z" fill="white"></path><path d="M1072.32 135.578C1072.58 137.196 1073.79 138.518 1075.25 139.098C1076.69 139.706 1078.36 139.674 1079.7 139.254C1082.62 138.413 1084.48 135.724 1084.14 133.851C1083.87 131.57 1081.23 129.875 1078.31 129.843C1076.76 129.866 1075.28 130.315 1074.05 131.334C1072.84 132.331 1072.09 133.953 1072.32 135.578ZM1072.32 135.578C1071.81 132.258 1074.69 129.206 1078 128.273C1079.78 127.782 1081.69 127.795 1083.51 128.579C1084.39 128.986 1085.26 129.56 1085.93 130.372C1086.27 130.777 1086.55 131.236 1086.78 131.72C1086.9 131.968 1087 132.284 1087.1 132.567L1087.25 133.172C1087.61 135.565 1086.57 137.572 1085.09 138.868C1083.64 140.152 1081.7 140.767 1080.01 140.808C1076.44 140.939 1072.86 138.894 1072.32 135.578ZM1085.13 202.83C1085.75 206.841 1088.66 210.186 1092.22 211.858C1095.8 213.572 1099.92 213.84 1103.65 213.081C1107.44 212.298 1110.92 210.402 1113.39 207.666C1115.87 205.003 1117.24 201.339 1116.68 198.016C1116.18 194.487 1113.8 191.553 1110.62 189.721C1107.46 187.857 1103.53 187.102 1099.74 187.488C1095.89 187.896 1092.09 189.383 1089.18 192.091C1086.28 194.754 1084.51 198.826 1085.13 202.83ZM1085.13 202.83C1084.46 198.835 1086.1 194.719 1088.86 191.773C1091.59 188.759 1095.42 186.726 1099.46 185.908C1103.55 185.092 1107.96 185.392 1111.9 187.287C1115.8 189.1 1119.13 192.945 1119.81 197.433C1120.54 202.113 1118.49 206.64 1115.33 209.584C1112.16 212.568 1108 214.193 1103.92 214.642C1099.75 215.085 1095.54 214.295 1092.01 212.247C1088.5 210.268 1085.69 206.841 1085.13 202.83ZM1113.74 112.829C1115.7 110.354 1119.26 110.277 1122.15 110.831C1125.16 111.386 1128.01 112.673 1130.62 114.399C1133.16 116.129 1135.54 118.318 1137.25 121.099C1138.06 122.507 1138.75 124.061 1139 125.823C1139.21 127.598 1139.06 129.515 1137.65 131.357C1137.34 131.662 1137.26 131.847 1136.75 132.239C1136.31 132.618 1135.87 132.886 1135.45 133.083C1134.6 133.523 1133.7 133.743 1132.82 133.873C1131.06 134.093 1129.38 133.819 1127.8 133.399C1124.66 132.484 1121.97 130.742 1119.6 128.719C1117.28 126.686 1115.29 124.224 1113.98 121.468C1113.3 120.098 1112.83 118.627 1112.68 117.117C1112.51 115.626 1112.79 114.02 1113.74 112.829ZM1113.74 112.829C1111.89 115.4 1112.88 118.818 1114.37 121.258C1115.94 123.797 1118.15 125.829 1120.58 127.467C1123 129.05 1125.71 130.254 1128.44 130.729C1131.14 131.213 1133.92 131.064 1135.3 129.209C1136.42 127.852 1136.07 124.781 1134.84 122.399C1133.66 119.888 1131.84 117.579 1129.63 115.639C1127.44 113.759 1124.9 112.099 1122.04 111.261C1120.62 110.87 1119.12 110.634 1117.63 110.809C1116.15 110.988 1114.7 111.657 1113.74 112.829ZM1162.46 152.487C1164.4 152.388 1166.13 153.863 1167.26 155.431C1168.43 157.065 1169.17 158.938 1169.34 161.021C1169.51 162.872 1169.23 165.067 1168.38 166.937C1167.94 167.89 1167.36 168.817 1166.54 169.623C1165.74 170.429 1164.53 171.091 1163.21 171.11C1162.72 171.072 1162.8 171.107 1162.33 171.012C1161.95 170.942 1161.63 170.824 1161.37 170.696C1160.81 170.445 1160.35 170.088 1159.95 169.705C1159.16 168.935 1158.61 168.043 1158.2 167.131C1157.38 165.293 1157.09 163.395 1157.07 161.451C1157.14 159.62 1157.51 157.654 1158.39 156.004C1159.22 154.392 1160.49 152.691 1162.46 152.487ZM1162.46 152.802C1160.65 152.85 1159.45 154.625 1159.01 156.252C1158.54 157.966 1158.49 159.664 1158.67 161.432C1158.83 163.086 1159.26 164.806 1160.06 166.208C1160.81 167.625 1162.11 168.724 1163.11 168.562C1164.1 168.454 1165.03 167.221 1165.46 165.765C1165.96 164.277 1166.1 162.802 1166.16 161.053C1166.15 159.54 1166.17 157.794 1165.73 156.189C1165.32 154.634 1164.31 152.844 1162.46 152.802ZM1148.35 194.636C1149.62 195.168 1150.36 196.637 1150.67 198.02C1151 199.463 1150.97 200.934 1150.42 202.381C1149.98 203.626 1149.05 204.999 1147.86 205.939C1146.66 206.793 1144.99 207.886 1142.75 206.888C1142.61 206.815 1141.93 206.356 1141.7 205.993C1141.4 205.621 1141.22 205.216 1141.07 204.821C1140.81 204.031 1140.76 203.266 1140.79 202.537C1140.88 201.068 1141.32 199.775 1141.95 198.52C1142.59 197.395 1143.5 196.267 1144.62 195.541C1145.69 194.821 1147.02 194.162 1148.35 194.636ZM1148.21 194.923C1147.09 194.375 1145.79 195.127 1145.06 196.044C1144.29 197.007 1143.79 198.045 1143.38 199.211C1143.01 200.269 1142.78 201.466 1142.87 202.534C1142.95 203.639 1143.34 204.509 1143.99 204.658C1144.21 204.687 1145.17 204.372 1145.77 203.588C1146.47 202.846 1146.95 202.049 1147.56 200.998C1148.01 200.135 1148.65 199.112 1148.98 198.02C1149.29 196.968 1149.34 195.538 1148.21 194.923ZM1047.7 162.732C1049.07 162.64 1050.39 163.624 1051.29 164.723C1052.22 165.851 1052.85 167.246 1053 168.696C1053.15 170.107 1052.93 171.677 1052.29 173.066C1051.95 173.767 1051.51 174.455 1050.87 175.061C1050.26 175.666 1049.3 176.188 1048.25 176.191C1046.02 176.08 1045 174.404 1044.45 173.168C1043.87 171.818 1043.69 170.457 1043.7 169.056C1043.78 167.765 1044.09 166.348 1044.76 165.204C1045.4 164.08 1046.29 162.898 1047.7 162.732ZM1047.7 163.051C1046.46 163.057 1045.63 164.312 1045.38 165.453C1045.11 166.663 1045.13 167.81 1045.29 169.04C1045.42 170.155 1045.74 171.33 1046.3 172.248C1046.82 173.197 1047.71 173.802 1048.14 173.649C1048.56 173.579 1049.13 172.866 1049.36 171.894C1049.66 170.935 1049.74 169.938 1049.82 168.829C1049.83 167.762 1049.96 166.628 1049.76 165.485C1049.58 164.398 1048.99 163.102 1047.7 163.051ZM1058.92 207.838C1060.29 206.946 1062.2 207.252 1063.73 207.901C1065.32 208.577 1066.69 209.612 1067.72 211.097C1068.63 212.371 1069.36 214.145 1069.51 215.907C1069.58 216.809 1069.54 217.755 1069.25 218.723C1068.99 219.676 1068.34 220.721 1067.33 221.313C1066.92 221.507 1067.03 221.476 1066.61 221.619C1066.28 221.734 1065.98 221.785 1065.73 221.797C1065.19 221.848 1064.68 221.772 1064.22 221.66C1063.29 221.412 1062.51 220.969 1061.82 220.463C1060.45 219.443 1059.43 218.131 1058.63 216.732C1057.91 215.318 1057.39 213.725 1057.37 212.135C1057.33 210.59 1057.55 208.825 1058.92 207.838ZM1059.07 208.118C1057.77 208.883 1057.64 210.683 1058.03 212.036C1058.42 213.46 1059.12 214.719 1059.98 215.882C1060.8 217.032 1061.82 218.064 1062.97 218.736C1064.09 219.443 1065.45 219.631 1065.98 219.144C1066.53 218.733 1066.7 217.538 1066.39 216.337C1066.13 215.082 1065.64 214.008 1064.97 212.702C1064.37 211.635 1063.72 210.332 1062.78 209.316C1061.88 208.322 1060.44 207.385 1059.07 208.118ZM1131.72 156.66C1134.45 156.526 1136.71 158.693 1138.16 160.888C1139.65 163.184 1140.55 165.787 1140.75 168.603C1140.89 171.184 1140.59 174.124 1139.45 176.682C1138.88 177.975 1138.12 179.234 1137.05 180.311C1136 181.384 1134.44 182.235 1132.75 182.27C1131.05 182.302 1129.53 181.473 1128.49 180.467C1127.42 179.45 1126.67 178.246 1126.1 177.01C1124.97 174.522 1124.5 171.856 1124.46 169.224C1124.51 166.615 1124.96 163.936 1126.11 161.592C1127.18 159.304 1128.99 156.925 1131.72 156.66ZM1131.72 156.979C1130.5 157.03 1129.33 157.661 1128.51 158.594C1127.69 159.537 1127.14 160.674 1126.74 161.843C1125.99 164.229 1125.86 166.708 1126.06 169.161C1126.24 171.595 1126.84 174.009 1127.95 176.09C1129.01 178.138 1130.88 179.922 1132.65 179.731C1134.4 179.556 1135.82 177.625 1136.53 175.516C1137.28 173.347 1137.57 171.129 1137.57 168.648C1137.54 166.402 1137.39 163.927 1136.63 161.655C1135.91 159.464 1134.33 156.988 1131.72 156.979ZM1027.48 152.92C1028.84 153.516 1030.37 153.369 1031.69 152.783C1033 152.191 1034.13 151.254 1035.12 150.219C1037.07 148.104 1038.44 145.555 1039.59 142.991C1040.73 140.372 1041.5 137.699 1041.66 134.953C1041.86 132.287 1041.19 129.407 1039.21 128.337C1037.21 127.257 1034.3 128.413 1032.18 130.172C1029.98 131.949 1028.21 134.329 1026.88 136.912C1025.54 139.515 1024.54 142.303 1024.28 145.262C1024.19 146.731 1024.27 148.234 1024.73 149.639C1025.19 151.05 1026.16 152.286 1027.48 152.92ZM1027.35 153.213C1024.5 151.668 1023.67 148.228 1023.6 145.252C1023.48 142.175 1024.25 139.075 1025.43 136.234C1026.71 133.405 1028.46 130.745 1030.83 128.601C1032.03 127.537 1033.39 126.597 1034.99 126.005C1036.57 125.412 1038.54 125.243 1040.31 126.046C1042.05 126.849 1043.31 128.445 1043.93 130.066C1044.57 131.701 1044.79 133.392 1044.81 135.042C1044.84 138.33 1043.84 141.551 1042.46 144.376C1041.01 147.228 1038.84 149.719 1036.22 151.525C1033.69 153.264 1030.26 154.609 1027.35 153.213ZM1035.22 231.316C1035.68 230.609 1036.6 230.462 1037.38 230.43C1038.18 230.411 1038.99 230.52 1039.79 230.676C1041.37 230.991 1042.93 231.443 1044.45 232.004C1047.52 233.075 1050.49 234.412 1053.37 235.973C1056.23 237.534 1059.04 239.264 1061.63 241.357C1062.91 242.428 1064.17 243.549 1065.28 244.903C1065.83 245.591 1066.36 246.32 1066.8 247.216C1067.15 248.073 1067.81 249.334 1066.92 251.035C1065.79 252.587 1064.36 252.555 1063.44 252.615C1062.44 252.612 1061.56 252.462 1060.7 252.274C1058.99 251.87 1057.43 251.242 1055.91 250.57C1052.89 249.162 1050.1 247.416 1047.42 245.537C1044.76 243.648 1042.24 241.567 1039.93 239.296C1038.75 238.178 1037.66 236.977 1036.67 235.696C1036.18 235.056 1035.73 234.377 1035.39 233.645C1035.06 232.928 1034.79 232.039 1035.22 231.316ZM1035.22 231.316C1034.81 232.052 1035.1 232.918 1035.43 233.619C1035.79 234.339 1036.26 234.999 1036.76 235.623C1037.78 236.865 1038.99 237.942 1040.22 238.968C1042.72 240.981 1045.46 242.667 1048.26 244.196C1051.06 245.712 1053.98 247.018 1056.93 248.038C1058.39 248.573 1059.89 249.006 1061.34 249.286C1062.05 249.426 1062.77 249.513 1063.39 249.497C1064.02 249.513 1064.42 249.21 1064.22 249.363C1064.17 249.602 1064.27 249.114 1063.97 248.554C1063.71 247.993 1063.32 247.388 1062.87 246.808C1061.98 245.639 1060.94 244.486 1059.81 243.412C1057.58 241.22 1055.13 239.181 1052.52 237.331C1049.93 235.499 1047.2 233.782 1044.29 232.421C1042.82 231.772 1041.33 231.166 1039.76 230.797C1038.98 230.622 1038.18 230.494 1037.38 230.491C1036.6 230.504 1035.7 230.625 1035.22 231.316ZM1016.14 184.283C1014.33 184.618 1013.45 186.561 1013.27 188.236C1013.07 189.982 1013.31 191.731 1013.75 193.381C1014.19 195.054 1014.87 196.615 1015.89 197.895C1016.81 199.189 1018.42 200.027 1019.17 199.759C1020.34 199.44 1020.91 198.112 1021.15 196.599C1021.42 195.121 1021.29 193.442 1021.11 191.929C1020.81 190.215 1020.6 188.682 1019.89 187.102C1019.25 185.631 1017.95 184.031 1016.14 184.283ZM1016.06 183.971C1017.99 183.557 1019.91 184.742 1021.28 186.108C1022.68 187.469 1023.75 189.399 1024.21 191.205C1024.71 193.232 1024.75 195.239 1024.22 197.29C1023.94 198.3 1023.52 199.307 1022.83 200.234C1022.48 200.696 1022.07 201.135 1021.55 201.492C1021.31 201.667 1021.01 201.839 1020.65 201.983C1020.24 202.161 1020.16 202.123 1019.89 202.206C1016.9 202.604 1015.3 200.651 1014.21 199.103C1013.11 197.443 1012.51 195.548 1012.19 193.7C1011.95 191.814 1012.02 189.88 1012.62 188.09C1013.18 186.366 1014.17 184.484 1016.06 183.971ZM1120.19 245.378C1120.89 246.496 1122.22 246.948 1123.47 247.021C1124.74 247.107 1126 246.846 1127.21 246.502C1129.62 245.741 1131.84 244.428 1133.8 242.956C1135.83 241.421 1137.56 239.685 1138.92 237.722C1140.27 235.922 1141.29 233.364 1140.59 232.396C1140.13 231.338 1137.42 231.119 1135.21 231.59C1132.89 231.998 1130.52 232.864 1128.35 234.021C1126.13 235.234 1124.06 236.652 1122.33 238.532C1121.51 239.481 1120.74 240.51 1120.25 241.689C1119.77 242.845 1119.57 244.221 1120.19 245.378ZM1120.19 245.378C1119.53 244.243 1119.69 242.832 1120.14 241.644C1120.58 240.43 1121.22 239.293 1121.99 238.251C1123.47 236.136 1125.4 234.253 1127.46 232.689C1129.61 231.109 1131.91 229.746 1134.56 228.917C1135.89 228.548 1137.29 228.248 1138.83 228.36C1139.59 228.398 1140.4 228.592 1141.2 228.927C1141.97 229.249 1142.97 230.121 1143.33 230.787C1144.32 232.616 1143.94 234.492 1143.38 235.843C1142.8 237.248 1141.95 238.391 1141.06 239.433C1139.21 241.466 1136.95 243.033 1134.69 244.275C1132.34 245.54 1129.88 246.461 1127.32 246.932C1126.05 247.187 1124.74 247.286 1123.46 247.142C1122.19 247.028 1120.85 246.515 1120.19 245.378Z" fill="url(#paint1_radial_2_1412)"></path><path d="M559.822 544.049C577.042 539.229 778.456 484.063 1036.8 466.3V399.465C1027.24 397.21 1012.92 399.465 1012.92 399.465C1016.9 413.934 1012.92 424.02 1012.92 424.02C1002.57 425.613 996.995 424.02 996.995 424.02C993.811 416.056 996.995 399.465 996.995 399.465L977.889 369.068C977.889 369.068 967.627 392.734 965.503 398.207C965.79 402.855 964.99 407.764 964.99 407.764C954.642 404.578 944.092 407.764 944.092 407.764C948.869 421.303 946.044 428.799 946.044 428.799C937.437 429.722 930.75 429.926 925.758 429.837C921.685 408.49 922.905 381.488 922.905 381.488C915.473 379.364 885.672 384.674 885.672 384.674C888.77 404.849 885.672 422.902 885.672 422.902C879.217 425.027 859.22 423.963 859.22 423.963C857.093 412.281 859.22 403.788 859.22 403.788C846.483 399.542 821.01 403.788 821.01 403.788C823.13 413.345 821.01 427.9 821.01 427.9H806.152C810.4 443.516 806.152 460.069 806.152 460.069C797.663 463.255 783.863 460.069 783.863 460.069C781.742 442.019 783.863 417.591 783.863 417.591L768.999 403.788L750.167 419.716C753.619 434.584 750.167 463.255 750.167 463.255C734.514 467.504 717.746 463.255 717.746 463.255C716.377 454.762 717.746 442.016 717.746 442.016C705.76 439.891 697.335 442.016 697.335 442.016C698.902 460.069 697.335 477.058 697.335 477.058C688.292 477.058 676.657 477.058 676.657 477.058C672.409 449.448 676.657 367.685 676.657 367.685C663.914 364.499 642.446 368.746 642.446 368.746C644.318 379.364 642.446 401.663 642.446 401.663C624.149 399.538 616.157 402.727 616.157 402.727C618.284 425.027 616.157 468.562 616.157 468.562C605.547 469.623 590.686 467.501 590.686 467.501C588.566 450.512 590.686 427.9 590.686 427.9C577.949 425.466 540.006 427.9 540.006 427.9C542.395 440.331 540.006 448.387 540.006 448.387C527.531 447.326 523.818 448.387 523.818 448.387C525.945 466.44 523.818 487.676 523.818 487.676L510.021 488.74C506.836 473.876 510.021 427.9 510.021 427.9C489.855 419.095 468.626 427.9 468.626 427.9C473.934 455.198 468.626 486.615 468.626 486.615H449.521V454.758L424.047 433.52L400.697 451.573V487.676L378.408 488.74C378.408 471.751 383.35 427.9 383.35 427.9C371.31 423.342 345.502 427.9 345.502 427.9C350.813 447.766 348.686 490.862 348.686 490.862L321.092 492.986C317.908 467.501 322.509 379.364 322.509 379.364C298.459 375.117 246.792 394.228 246.792 394.228C258.086 431.895 257.204 447.256 259.799 471.757C251.96 472.334 240.35 472.394 225.623 470.215C225.623 470.215 224.149 448.98 229.66 434.112C229.66 434.112 206.518 429.866 190.597 434.112C190.597 434.112 195.905 464.905 190.597 487.204H156.424L156.102 493.506C263.98 504.069 412.788 520.765 560.513 544.164C560.28 544.126 560.051 544.087 559.822 544.049Z" fill="#0C4FB7"></path><path d="M1201.71 372.722H1201.33C1199.6 379.093 1193.12 389.586 1193.12 389.586L1197.87 389.172C1195.28 395.649 1187.95 401.701 1187.95 401.701L1193.12 401.924C1190.53 409.697 1185.36 415.212 1185.36 415.212L1193.12 415.311C1189.24 422.217 1180.61 435.731 1180.61 435.731L1188.86 434.784C1182.39 446.049 1172.44 455.361 1172.44 455.361L1183.25 452.825C1182.4 456.246 1180.45 458.874 1178.25 460.875C1187.13 460.814 1196.05 460.802 1205 460.856V380.74C1203.63 377.994 1202.34 375.076 1201.71 372.722Z" fill="#093B89"></path><path d="M1111 461.904C1111 461.904 1111.54 462.057 1112.54 462.296C1131.03 461.62 1149.74 461.174 1168.62 460.964C1165.18 459.505 1159.1 456.061 1157.45 449.47L1167.18 451.987C1167.18 451.987 1158.25 443.924 1152.42 433.787L1159.83 434.294C1159.83 434.294 1152.06 422.096 1148.56 415.878L1155.55 415.999C1155.55 415.999 1150.89 410.809 1148.56 403.817L1153.23 403.358C1153.23 403.358 1146.62 397.496 1144.29 391.667L1148.56 393.543C1148.56 393.543 1142.74 382.278 1141.19 379.093H1140.84C1139.29 382.278 1133.46 393.521 1133.46 393.521L1137.73 392.778C1135.41 398.608 1128.8 403.864 1128.8 403.864L1133.46 403.973C1131.13 410.965 1126.47 415.884 1126.47 415.884L1133.46 415.948C1129.97 422.163 1122.2 434.316 1122.2 434.316L1129.62 433.459C1123.8 443.596 1114.84 451.974 1114.84 451.974L1124.58 449.69C1122.25 459.021 1111 461.904 1111 461.904Z" fill="#093B89"></path><path d="M1043.33 465.867C1058.34 464.873 1073.54 464.013 1088.9 463.29C1086.84 461.445 1085.01 459.011 1084.21 455.838L1093.95 458.355C1093.95 458.355 1085.01 450.292 1079.19 440.155L1086.59 440.662C1086.59 440.662 1078.83 428.464 1075.33 422.246L1082.32 422.367C1082.32 422.367 1077.66 417.177 1075.33 410.185L1079.99 409.726C1079.99 409.726 1073.39 403.865 1071.06 398.035L1075.33 399.911C1075.33 399.911 1069.5 388.647 1067.95 385.461H1067.61C1066.05 388.647 1060.23 399.889 1060.23 399.889L1064.5 399.147C1062.17 404.976 1055.57 410.233 1055.57 410.233L1060.23 410.341C1057.9 417.333 1053.24 422.252 1053.24 422.252L1060.23 422.316C1056.73 428.531 1048.96 440.684 1048.96 440.684L1056.39 439.827C1050.57 449.964 1041.61 458.342 1041.61 458.342L1051.34 456.058C1050.13 460.907 1046.52 463.997 1043.33 465.867Z" fill="#093B89"></path><path d="M968.133 471.98C980.545 470.782 993.132 469.661 1005.87 468.622C1005.33 467.641 1004.9 466.568 1004.61 465.395L1014.35 467.912C1014.35 467.912 1005.41 459.849 999.581 449.712L1006.99 450.219C1006.99 450.219 999.221 438.021 995.724 431.803L1002.71 431.924C1002.71 431.924 998.055 426.734 995.724 419.742L1000.39 419.283C1000.39 419.283 993.785 413.421 991.451 407.592L995.724 409.468C995.724 409.468 989.897 398.204 988.347 395.018H988.003C986.449 398.204 980.622 409.446 980.622 409.446L984.895 408.704C982.567 414.533 975.96 419.79 975.96 419.79L980.622 419.898C978.291 426.89 973.632 431.809 973.632 431.809L980.622 431.873C977.129 438.088 969.359 450.241 969.359 450.241L976.785 449.384C970.961 459.521 962 467.899 962 467.899L971.738 465.615C971.085 468.224 969.732 470.305 968.133 471.98Z" fill="#093B89"></path><path d="M934.285 464.548C931.776 468.916 928.76 472.996 925.971 476.392C938.848 474.94 951.945 473.554 965.245 472.257C963.557 469.98 961.889 467.52 960.402 464.93L968.881 465.51C968.881 465.51 959.991 451.541 955.985 444.418L963.994 444.555C963.994 444.555 958.654 438.617 955.985 430.605L961.325 430.079C961.325 430.079 953.76 423.367 951.088 416.69L955.985 416.792C955.985 416.792 949.308 407.764 947.528 398.207H947.136C945.353 407.764 938.682 416.779 938.682 416.779L943.577 416.938C940.908 423.616 933.342 430.153 933.342 430.153L938.682 430.532C936.014 438.547 930.671 444.303 930.671 444.303L938.682 444.44C934.677 451.56 925.783 465.51 925.783 465.51L934.285 464.548Z" fill="#093B89"></path><path d="M888.448 480.9C900.115 479.415 911.986 477.979 924.06 476.606C923.048 475.402 922.21 473.958 921.777 472.225L929.273 474.162C929.273 474.162 922.392 467.957 917.905 460.152L923.608 460.54C923.608 460.54 917.632 451.152 914.938 446.364L920.319 446.457C920.319 446.457 916.73 442.462 914.938 437.078L918.526 436.728C918.526 436.728 913.441 432.214 911.648 427.725L914.938 428.808C914.938 428.808 910.454 420.51 909.257 417.324H908.99C907.792 420.51 903.309 428.799 903.309 428.799L906.598 428.4C904.802 432.892 899.72 437.034 899.72 437.034L903.309 437.158C901.516 442.542 897.928 446.355 897.928 446.355L903.309 446.415C900.615 451.203 894.635 460.563 894.635 460.563L900.354 459.907C895.871 467.711 888.97 474.162 888.97 474.162L896.466 472.404C895.285 477.115 891.148 479.686 888.448 480.9Z" fill="#093B89"></path><path d="M859.322 484.761C865.955 483.844 872.683 482.945 879.465 482.06C879.338 481.747 879.182 481.461 879.099 481.12L881.628 481.776C882.213 481.7 882.79 481.62 883.379 481.547C881.815 479.995 878.673 476.641 876.39 472.671L880.382 472.942C880.382 472.942 876.199 466.37 874.313 463.019L878.084 463.086C878.084 463.086 875.571 460.292 874.313 456.52L876.826 456.275C876.826 456.275 873.266 453.115 872.008 449.97L874.313 450.729C874.313 450.729 871.177 444.918 870.336 442.688H870.148C869.308 444.918 866.171 450.719 866.171 450.719L868.477 450.439C867.216 453.583 863.659 456.485 863.659 456.485L866.171 456.571C864.914 460.34 862.401 463.006 862.401 463.006L866.171 463.048C864.286 466.399 860.102 472.952 860.102 472.952L864.105 472.49C860.968 477.953 856.135 482.467 856.135 482.467L861.382 481.238C861.019 482.7 860.233 483.84 859.322 484.761Z" fill="#093B89"></path><path d="M35.0194 476.644L47.2563 479.804C47.2563 479.804 36.0224 469.671 28.6987 456.928L38.0094 457.565C38.0094 457.565 28.2466 442.233 23.8555 434.418L32.6408 434.568C32.6408 434.568 26.7818 428.047 23.8555 419.254L29.7145 418.681C29.7145 418.681 21.4101 411.309 18.4838 403.982L23.8555 403.387C23.8555 403.387 16.5287 391.829 14.5768 382.272H14.1405C12.1886 391.829 4.86173 403.364 4.86173 403.364L10.2367 403.9C7.30721 411.227 -0.99403 418.576 -0.99403 418.576L4.86492 419.079C1.93863 427.872 -3.92032 434.237 -3.92032 434.237L4.86492 434.412C2.38442 438.83 -1.81556 445.641 -4.99658 450.735V457.065L0.0440226 456.492C-1.50669 459.193 -3.23571 461.78 -4.99658 464.201V479.431C-4.99658 479.431 10.5869 480.54 37.9807 482.802C36.6784 481.05 35.6116 479.014 35.0194 476.644Z" fill="#093B89"></path><path d="M63.7251 466.058C59.6462 473.156 54.354 479.559 50.4565 483.853C64.5021 485.035 80.8944 486.462 99.3246 488.141C99.0858 487.52 98.8725 486.879 98.7037 486.204L109.976 489.116C110.231 489.141 110.492 489.167 110.746 489.186C109.291 487.845 99.1654 478.294 92.3799 466.488L101.69 467.125C101.69 467.125 91.9277 451.793 87.5367 443.978L96.3219 444.128C96.3219 444.128 90.463 437.607 87.5367 428.815L93.3956 428.241C93.3956 428.241 85.0912 420.869 82.1649 413.542L87.5399 412.947C87.5399 412.947 80.213 401.389 78.2611 391.832H77.8248C75.8729 401.389 68.546 412.924 68.546 412.924L73.921 413.46C70.9915 420.787 62.6903 428.136 62.6903 428.136L68.5492 428.639C65.6229 437.432 59.764 443.797 59.764 443.797L68.5492 443.972C64.1582 451.786 54.3954 467.112 54.3954 467.112L63.7251 466.058Z" fill="#093B89"></path><path d="M87.8043 470.394C84.2061 476.657 79.5221 482.305 76.1055 486.061C89.1384 487.204 103.502 488.504 119.048 489.957C118.799 489.339 118.58 488.692 118.411 488.014L129.116 490.779C129.116 490.779 119.287 481.913 112.877 470.763L121.025 471.321C121.025 471.321 112.482 457.906 108.639 451.07L116.325 451.2C116.325 451.2 111.202 445.495 108.639 437.804L113.762 437.304C113.762 437.304 106.499 430.853 103.935 424.441L108.639 425.081C108.639 425.081 102.229 414.138 100.519 407.767H100.143C98.4332 414.138 92.0233 425.062 92.0233 425.062L96.7264 424.954C94.1599 431.363 86.8999 437.502 86.8999 437.502L92.0233 437.798C89.46 445.491 84.3366 450.99 84.3366 450.99L92.0233 451.108C88.18 457.944 79.6368 471.333 79.6368 471.333L87.8043 470.394Z" fill="#093B89"></path><path d="M147.209 492.636C161.232 493.996 175.994 495.462 191.406 497.035C188.753 494.926 186.276 491.996 185.279 488.014L195.985 490.779C195.985 490.779 186.155 481.913 179.745 470.763L187.894 471.321C187.894 471.321 179.35 457.906 175.507 451.07L183.194 451.2C183.194 451.2 178.07 445.495 175.507 437.804L180.63 437.304C180.63 437.304 173.367 430.853 170.804 424.441L175.507 425.081C175.507 425.081 169.097 414.138 167.387 407.767H167.008C165.298 414.138 158.889 425.062 158.889 425.062L163.592 424.954C161.025 431.363 153.765 437.502 153.765 437.502L158.889 437.798C156.325 445.491 151.202 450.99 151.202 450.99L158.889 451.108C155.045 457.944 146.502 471.333 146.502 471.333L154.666 470.4C148.26 481.55 138.408 490.772 138.408 490.772L149.116 488.265C148.709 489.899 148.03 491.339 147.209 492.636Z" fill="#093B89"></path><path d="M179.073 495.783C193.294 497.214 208.116 498.746 223.448 500.371C220.719 498.252 218.143 495.28 217.121 491.196L227.826 493.961C227.826 493.961 217.997 485.095 211.587 473.946L219.735 474.503C219.735 474.503 211.192 461.088 207.349 454.252L215.035 454.383C215.035 454.383 209.912 448.677 207.349 440.984L212.472 440.484C212.472 440.484 205.209 434.036 202.646 427.623L207.349 428.263C207.349 428.263 200.939 417.321 199.229 410.949H198.85C197.14 417.321 190.73 428.244 190.73 428.244L195.433 428.13C192.867 434.546 185.607 440.684 185.607 440.684L190.73 440.981C188.167 448.674 183.044 454.172 183.044 454.172L190.73 454.287C186.887 461.123 178.344 474.516 178.344 474.516L186.508 473.583C180.101 484.732 170.25 493.948 170.25 493.948L180.958 491.441C180.554 493.066 179.882 494.5 179.073 495.783Z" fill="#093B89"></path><path d="M379.751 507.127C377.143 511.664 373.571 515.604 371.708 517.522C372.59 517.631 373.482 517.745 374.364 517.857L376.577 517.337C376.507 517.615 376.373 517.838 376.281 518.099C383.932 519.067 391.622 520.048 399.363 521.055C398.424 520.017 397.627 518.755 397.239 517.197L403.359 518.781C403.359 518.781 397.742 513.712 394.08 507.341L398.732 507.663C398.732 507.663 393.851 499.998 391.657 496.089L396.051 496.162C396.051 496.162 393.122 492.903 391.657 488.507L394.587 488.217C394.587 488.217 390.434 484.535 388.97 480.868L391.657 480.804C391.657 480.804 387.995 475.586 387.015 470.489H386.801C385.82 475.589 382.162 480.795 382.162 480.795L384.849 480.941C383.388 484.605 379.232 488.221 379.232 488.221L382.162 488.444C380.697 492.843 377.768 496.01 377.768 496.01L382.162 496.089C379.965 499.998 375.086 507.653 375.086 507.653L379.751 507.127Z" fill="#093B89"></path><path d="M233.635 501.46C247.687 502.97 262.124 504.557 276.927 506.226C274.447 504.149 272.189 501.323 271.25 497.567L281.958 500.332C281.958 500.332 272.125 491.467 265.719 480.317L273.864 480.874C273.864 480.874 265.321 467.46 261.477 460.623L269.164 460.754C269.164 460.754 264.041 455.048 261.477 447.355L266.601 446.855C266.601 446.855 259.341 440.407 256.774 433.994L261.477 434.635C261.477 434.635 255.068 423.692 253.358 417.321H252.979C251.269 423.692 244.859 434.616 244.859 434.616L249.562 434.501C246.999 440.917 239.736 447.056 239.736 447.056L244.859 447.352C242.296 455.045 237.172 460.544 237.172 460.544L244.859 460.658C241.016 467.495 232.472 480.887 232.472 480.887L240.64 479.954C234.23 491.104 224.381 500.32 224.381 500.32L235.087 497.813C234.759 499.147 234.256 500.355 233.635 501.46Z" fill="#093B89"></path><path d="M343.948 514.085C354.822 515.41 365.83 516.78 376.93 518.182C374.564 516.659 372.049 514.279 371.164 510.743L378.812 512.722C378.812 512.722 371.791 506.388 367.212 498.424L373.026 498.822C373.026 498.822 366.925 489.24 364.184 484.356L369.677 484.449C369.677 484.449 366.015 480.374 364.184 474.879L367.842 474.519C367.842 474.519 362.652 469.916 360.824 465.335L364.184 465.258C364.184 465.258 359.605 458.734 358.382 452.363H358.115C356.889 458.734 352.313 465.246 352.313 465.246L355.672 465.43C353.845 470.011 348.654 474.529 348.654 474.529L352.313 474.809C350.485 480.307 346.82 484.264 346.82 484.264L352.313 484.366C349.571 489.25 343.47 498.819 343.47 498.819L349.304 498.157C344.728 506.121 337.688 512.709 337.688 512.709L345.336 510.915C345.04 512.107 344.547 513.152 343.948 514.085Z" fill="#093B89"></path><path d="M289.387 507.644C303.207 509.224 317.303 510.877 331.632 512.597C328.381 510.918 324.111 507.793 322.805 502.569L331.982 504.939C331.982 504.939 323.557 497.338 318.064 487.781L325.044 488.256C325.044 488.256 317.723 476.759 314.428 470.897L321.019 471.009C321.019 471.009 316.625 466.119 314.428 459.524L318.822 459.094C318.822 459.094 312.597 453.567 310.396 448.069L314.428 448.352C314.428 448.352 308.935 439.62 307.467 433.249H307.142C305.674 439.62 300.182 448.336 300.182 448.336L304.213 448.374C302.016 453.87 295.787 459.199 295.787 459.199L300.182 459.486C297.988 466.08 293.593 470.808 293.593 470.808L300.182 470.916C296.886 476.778 289.565 488.256 289.565 488.256L296.564 487.462C291.071 497.019 282.627 504.917 282.627 504.917L291.807 502.769C291.333 504.674 290.454 506.277 289.387 507.644Z" fill="#093B89"></path><path d="M559.822 544.049C587.149 548.372 614.441 552.921 641.43 557.709C788.368 534.741 1011.98 508.195 1205 520.456V460.859C870.645 458.814 580.64 538.223 559.822 544.049Z" fill="url(#paint2_linear_2_1412)"></path><path d="M805.277 535.652C806.331 535.534 807.385 535.416 808.442 535.301C808.104 526.866 805.885 518.217 801.892 510.82C797.482 502.652 790.594 498.857 782.487 497.644C798.176 500.769 804.78 521.345 805.277 535.652Z" fill="#335C9D"></path><path d="M795.51 495.548C799.332 496.513 802.869 498.297 806.098 500.53C816.87 507.978 820.583 521.488 821.662 533.855C822.707 533.74 823.758 533.632 824.805 533.521C822.981 514.082 812.581 496.886 793.262 494.722C792.944 494.777 792.622 494.828 792.301 494.882C793.377 495.057 794.45 495.277 795.51 495.548Z" fill="#335C9D"></path><path d="M641.43 557.709C337.37 503.776 -5 479.441 -5 479.441V517.271C-5 517.271 225.059 569.037 487.613 585.061C505.63 581.363 562.458 570.054 641.43 557.709Z" fill="url(#paint3_linear_2_1412)"></path><path d="M515.956 579.455C495.396 573.147 420.691 547.528 446.69 527.379C445.779 527.254 444.869 527.127 443.961 527.003C415.946 547.643 495.38 574.22 514.01 579.827C514.654 579.703 515.294 579.582 515.956 579.455Z" fill="#335C9D"></path><path d="M528.948 569.968C516.927 566.489 505.018 562.577 493.339 558.082C486.824 555.575 446.633 540.472 462.713 529.602C461.834 529.478 460.955 529.357 460.076 529.233C441.067 541.032 491.743 558.754 498.331 561.127C510.4 565.479 522.691 569.254 535.08 572.577C537.637 573.265 540.169 573.982 542.738 574.437C543.471 574.303 544.213 574.166 544.955 574.032C543.738 573.835 542.334 573.634 541.595 573.446C537.357 572.373 533.144 571.185 528.948 569.968Z" fill="#335C9D"></path><path d="M1203.63 465.191C1203.45 465.153 1203.28 465.128 1203.09 465.09C1193.48 467.644 1184 468.903 1175.21 469.355C1168.16 469.355 1165.33 467.759 1165.33 467.759C1162.04 468.963 1158.67 468.597 1154.96 469.097C1140.3 467.992 1130.32 465.309 1129.51 465.083C1129.5 465.09 1129.43 465.115 1129.43 465.115C1129.43 465.115 1147.55 468.673 1164.15 480.19L1148.78 477.377C1148.78 477.377 1172.17 487.727 1194.27 500.243L1183.86 499.198C1183.86 499.198 1194.01 504.751 1205 510.826V471.203C1203.62 467.641 1203.63 465.191 1203.63 465.191Z" fill="#335C9D"></path><path d="M1181.24 509.67L1170.55 510.466C1160.73 494.538 1159.68 481.868 1159.68 481.868L1149.09 485.819C1140.17 476.341 1142.03 471.012 1144.46 468.412C1134.12 470.76 1123.97 472.053 1114.46 472.538C1106.42 471.748 1102.38 471.209 1102.38 471.209C1097.79 472.519 1093.42 471.572 1088.69 472.206C1072.63 470.999 1060.98 468.298 1057.38 467.383C1065.13 469.46 1081.58 474.752 1097.02 485.468L1077.47 481.894C1077.47 481.894 1107.24 495.07 1135.36 510.998L1122.12 509.676C1122.12 509.676 1128.3 513.056 1136.73 517.694C1153.55 518.019 1170.23 518.589 1186.73 519.427C1183.6 513.922 1181.24 509.67 1181.24 509.67Z" fill="#335C9D"></path><path d="M1096.57 507.083L1089.01 507.647C1082.07 496.385 1081.33 487.424 1081.33 487.424L1073.84 490.221C1064.09 479.858 1072.55 476.475 1072.55 476.475C1072.05 476.373 1071.59 476.303 1071.1 476.207C1062.78 478.335 1054.59 479.428 1046.97 479.817C1040.28 478.912 1038.56 478.116 1038.56 478.116C1035.04 479.817 1032.09 479.132 1028.75 479.584C1017.19 478.711 1008.86 476.749 1006.49 476.144C1006.06 476.297 1005.77 476.408 1005.77 476.408C1005.77 476.408 1022.08 479.613 1037.02 489.976L1023.18 487.443C1023.18 487.443 1044.23 496.758 1064.12 508.023L1054.75 507.08C1054.75 507.08 1063.91 512.091 1073.81 517.567C1083.36 517.433 1092.88 517.366 1102.38 517.372C1099.28 511.97 1096.57 507.083 1096.57 507.083Z" fill="#335C9D"></path><path d="M218.391 503.292C210.087 505.379 201.91 506.465 194.3 506.853C187.778 506.054 185.658 505.509 185.658 505.509C182.556 506.57 179.149 506.159 175.748 506.618C164.101 505.742 155.685 503.773 153.16 503.133C155.041 504.216 159.455 507.972 151.341 516.595L143.397 514.018C143.397 514.018 142.505 521.23 137.595 530.676C145.817 531.606 154.325 532.594 163.104 533.642C182.814 522.626 202.639 513.999 202.639 513.999L188.234 516.847C200.42 508.392 213.621 504.506 218.391 503.292Z" fill="#335C9D"></path><path d="M161.197 494.003C152.443 495.888 143.865 496.921 135.793 497.335C127.476 496.564 124.753 495.369 124.753 495.369C121.238 496.229 116.857 496.468 112.603 497.038C98.0571 495.943 87.5364 493.49 84.3713 492.687C86.7308 494.047 92.2268 498.74 82.0946 509.507L72.1631 506.286C72.1631 506.286 71.2715 513.406 66.7754 523.269C77.987 524.34 90.3672 525.576 103.785 526.984C125.909 515.098 146.212 506.264 146.212 506.264L128.208 509.819C140.694 501.158 154.013 496.344 161.709 494.05C161.541 494.038 161.369 494.018 161.197 494.003Z" fill="#335C9D"></path><path d="M99.3211 489.374C87.0332 492.652 74.9141 494.264 63.6675 494.84C55.0001 494.076 51.0708 492.633 51.0708 492.633C49.2303 493.48 42.6262 493.878 37.8977 494.512C18.4262 493.047 5.406 489.38 5.406 489.38C5.406 489.38 6.53958 494.844 -3.41108 503.534L-5 504.152V517.271C-5 517.271 11.7649 518.335 41.4799 520.947C60.2317 511.447 75.1243 504.961 75.1243 504.961L55.1211 508.911C76.2388 494.257 99.6077 489.473 99.6077 489.473C99.5154 489.441 99.4166 489.412 99.3211 489.374Z" fill="#335C9D"></path><path d="M1129.44 465.061C1129.44 465.061 1139.67 467.944 1154.97 469.097C1158.68 468.597 1162.05 468.963 1165.33 467.759C1165.33 467.759 1168.17 469.355 1175.21 469.355C1184.15 468.896 1193.78 467.619 1203.54 464.984C1203.54 464.984 1189.66 461.225 1186.78 449.712L1198.8 452.818C1198.8 452.818 1187.77 442.863 1180.57 430.35L1189.72 430.974C1189.72 430.974 1180.13 415.916 1175.81 408.242L1184.44 408.388C1184.44 408.388 1178.69 401.982 1175.81 393.349L1181.57 392.785C1181.57 392.785 1173.42 385.547 1170.54 378.351L1175.81 379.239C1175.81 379.239 1168.62 366.347 1166.7 359.976H1166.28C1164.35 366.347 1157.16 379.217 1157.16 379.217L1162.44 379.007C1159.56 386.203 1151.41 393.052 1151.41 393.052L1157.16 393.365C1154.29 402.001 1148.53 408.162 1148.53 408.162L1157.16 408.286C1152.85 415.96 1143.26 430.987 1143.26 430.987L1152.43 429.939C1145.24 442.455 1134.18 452.802 1134.18 452.802L1146.19 449.986C1143.32 461.502 1129.44 465.061 1129.44 465.061Z" fill="#072C67"></path><path d="M1056.2 467.077C1056.2 467.077 1069.22 470.744 1088.69 472.209C1093.42 471.576 1097.79 472.522 1102.39 471.212C1102.39 471.212 1106.42 471.751 1114.46 472.541C1125.83 471.958 1138.09 470.333 1150.52 466.979C1150.52 466.979 1132.85 462.194 1129.19 447.54L1144.48 451.49C1144.48 451.49 1130.44 438.821 1121.29 422.892L1132.92 423.689C1132.92 423.689 1120.72 404.524 1115.23 394.757L1126.21 394.945C1126.21 394.945 1118.89 386.793 1115.23 375.805L1122.55 375.088C1122.55 375.088 1112.17 365.872 1108.51 356.714L1115.23 356.831C1115.23 356.831 1106.07 340.859 1103.63 331.302H1103.09C1100.65 340.859 1091.49 356.806 1091.49 356.806L1098.21 357.042C1094.55 366.2 1084.17 375.171 1084.17 375.171L1091.49 375.694C1087.83 386.684 1080.51 394.588 1080.51 394.588L1091.49 394.779C1086 404.546 1073.8 423.686 1073.8 423.686L1085.46 422.36C1076.31 438.289 1062.24 451.461 1062.24 451.461L1077.53 447.884C1073.86 462.541 1056.2 467.077 1056.2 467.077Z" fill="#072C67"></path><path d="M1005.77 475.949C1005.77 475.949 1014.98 478.543 1028.75 479.581C1032.09 479.129 1035.05 479.814 1038.56 478.113C1038.56 478.113 1040.28 478.909 1046.97 479.814C1055.01 479.403 1063.68 478.253 1072.47 475.883C1072.47 475.883 1059.98 472.496 1057.39 462.136L1068.2 464.933C1068.2 464.933 1058.27 455.972 1051.8 444.711L1060.03 445.275C1060.03 445.275 1051.4 431.723 1047.52 424.813L1055.28 424.947C1055.28 424.947 1050.11 419.181 1047.52 411.411L1052.7 410.905C1052.7 410.905 1045.36 404.39 1042.77 397.914L1047.52 399.169C1047.52 399.169 1041.04 388.653 1039.32 382.282H1038.93C1037.2 388.653 1030.73 399.147 1030.73 399.147L1035.48 398.732C1032.89 405.209 1025.55 411.262 1025.55 411.262L1030.73 411.485C1028.14 419.254 1022.96 424.772 1022.96 424.772L1030.73 424.871C1026.85 431.777 1018.22 445.291 1018.22 445.291L1026.47 444.345C1020 455.609 1010.04 464.921 1010.04 464.921L1020.86 462.385C1018.26 472.745 1005.77 475.949 1005.77 475.949Z" fill="#072C67"></path><path d="M152.351 502.922C152.351 502.922 161.722 505.563 175.745 506.618C179.149 506.159 182.556 506.57 185.655 505.509C185.655 505.509 187.775 506.054 194.297 506.853C202.48 506.436 211.31 505.264 220.258 502.849C220.258 502.849 207.54 499.405 204.9 488.851L215.914 491.699C215.914 491.699 205.801 482.579 199.21 471.107L207.588 471.681C207.588 471.681 198.802 457.884 194.848 450.85L202.754 450.987C202.754 450.987 197.484 445.115 194.848 437.209L200.121 436.693C200.121 436.693 192.65 430.057 190.011 423.463L194.848 423.256C194.848 423.256 188.259 410.953 186.495 404.581H186.107C184.346 410.953 177.755 423.24 177.755 423.24L182.592 423.558C179.955 430.149 172.482 436.686 172.482 436.686L177.755 437.097C175.118 445.01 169.848 450.719 169.848 450.719L177.755 450.866C173.8 457.9 165.015 471.681 165.015 471.681L173.418 470.728C166.826 482.2 156.694 491.683 156.694 491.683L167.705 489.106C165.069 499.657 152.351 502.922 152.351 502.922Z" fill="#072C67"></path><path d="M83.3618 492.419C83.3618 492.419 95.0797 495.72 112.606 497.038C116.86 496.465 121.241 496.229 124.757 495.369C124.757 495.369 127.476 496.564 135.796 497.335C146.027 496.812 157.064 495.347 168.247 492.33C168.247 492.33 152.348 488.023 149.049 474.838L162.817 478.393C162.817 478.393 150.176 466.991 141.939 452.656L152.408 453.373C152.408 453.373 141.429 436.126 136.484 427.333L146.368 427.502C146.368 427.502 139.78 420.165 136.484 410.28L143.075 409.637C143.075 409.637 133.736 401.341 130.437 393.1L136.481 392.861C136.481 392.861 128.243 379.099 126.043 369.542H125.559C123.359 379.099 115.121 392.839 115.121 392.839L121.165 393.228C117.869 401.466 108.527 409.627 108.527 409.627L115.118 410.14C111.822 420.032 105.231 427.168 105.231 427.168L115.118 427.352C110.173 436.145 99.1937 453.37 99.1937 453.37L109.695 452.181C101.455 466.517 88.7909 478.377 88.7909 478.377L102.556 475.156C99.2606 488.338 83.3618 492.419 83.3618 492.419Z" fill="#072C67"></path><path d="M5.40918 489.377C5.40918 489.377 18.4294 493.044 37.9009 494.509C42.6262 493.875 49.2335 493.477 51.0739 492.63C51.0739 492.63 55.0033 494.073 63.6707 494.837C75.0383 494.254 87.3007 492.63 99.7287 489.275C99.7287 489.275 82.0595 484.49 78.3977 469.836L93.6946 473.786C93.6946 473.786 79.6522 461.117 70.4976 445.189L82.1327 445.985C82.1327 445.985 69.9308 426.82 64.4381 417.053L75.4204 417.241C75.4204 417.241 68.0967 409.089 64.4381 398.102L71.7618 397.385C71.7618 397.385 61.3844 388.169 57.7226 379.01L64.4381 379.128C64.4381 379.128 55.2835 363.155 52.8412 353.598H52.2999C49.8576 363.155 40.6998 379.102 40.6998 379.102L47.4153 379.338C43.7534 388.497 33.3761 397.468 33.3761 397.468L40.6998 397.99C37.0411 408.981 29.7174 416.884 29.7174 416.884L40.6998 417.075C35.207 426.852 23.0051 445.992 23.0051 445.992L34.6721 444.666C25.5175 460.595 11.4433 473.767 11.4433 473.767L26.7402 470.19C23.0752 484.841 5.40918 489.377 5.40918 489.377Z" fill="#072C67"></path><path d="M487.62 585.061C667.728 621.231 866.104 675.308 1025.09 755H1205V520.456C908.267 501.61 539.191 574.469 487.62 585.061Z" fill="url(#paint4_linear_2_1412)"></path><path d="M800.347 665.031C801.799 665.496 803.242 665.977 804.687 666.445C833.772 646.245 958.535 553.781 891.61 527.124C891.559 527.105 891.505 527.101 891.454 527.086C889.699 527.235 887.951 527.388 886.206 527.541C949.476 554.125 832.565 642.374 800.347 665.031Z" fill="#335C9D"></path><path d="M862.783 686.317C884.328 664.636 1003.75 538.742 936.482 523.699C936.189 523.632 935.877 523.642 935.574 523.626C934.068 523.734 932.559 523.836 931.053 523.948C994.667 539.608 883.296 658.965 858.077 684.638C859.647 685.199 861.22 685.757 862.783 686.317Z" fill="#335C9D"></path><path d="M1006.26 600.961L1009.57 595.118L999.965 581.411L986.401 601.48L962.038 596.663L972.858 612.713L982.201 613.672C981.519 617.255 984.223 620.11 987.792 620.511C990.983 620.868 995.371 621.136 998.154 619.342C1001.63 617.103 1001.48 613.175 1001.47 613.047C1002.25 612.993 1003.03 612.913 1003.8 612.751C1009.44 611.579 1012.44 603.025 1006.26 600.961ZM991.311 619.575C988.292 618.151 988.385 615.233 988.42 614.309L994.957 614.981C994.954 614.987 994.954 614.994 994.954 615.003C994.568 616.994 993.091 618.606 991.311 619.575ZM1000.49 611.133L1003.3 606.169C1004.36 610.088 1000.54 611.19 1000.49 611.133Z" fill="#335C9D"></path><path d="M980.351 588.132L993.912 568.059L999.966 581.414L986.404 601.483L980.351 588.132Z" fill="#06275C"></path><path d="M980.351 588.132L993.912 568.059L996.568 573.915L983.003 593.988L980.351 588.132Z" fill="#051C42"></path><path d="M980.351 588.132L955.985 583.316L962.038 596.667L986.404 601.483L980.351 588.132Z" fill="#072C67"></path><path d="M980.351 588.132L955.985 583.316L958.641 589.171L983.003 593.988L980.351 588.132Z" fill="#051C42"></path><path d="M993.912 568.059L969.55 563.246L955.985 583.316L980.351 588.132L993.912 568.059Z" fill="#3C5987"></path><path d="M985.404 580.652L989.12 575.151L995.173 588.499L991.451 594.003L985.404 580.652Z" fill="#304B77"></path><path d="M971.582 586.396L965.547 585.201L971.601 598.553L977.635 599.75L971.582 586.396Z" fill="#304B77"></path><path d="M989.12 575.151L964.758 570.334L961.035 575.839L985.404 580.652L989.12 575.151Z" fill="#687FA3"></path><path d="M985.146 566.323L979.112 565.132L965.547 585.201L971.582 586.396L985.146 566.323Z" fill="#687FA3"></path><path d="M981.956 560.681C981.284 559.044 979.561 557.423 977.701 556.855C975.275 556.499 971.499 557.7 970.827 557.923C969.559 558.471 968.42 559.273 967.502 560.63C965.417 563.698 966.05 567.359 967.9 570.375C964.248 570.952 960.109 571.873 957.931 575.068C956.354 577.39 957.157 580.891 959.185 582.605C960.8 583.962 963.318 583.548 965.2 583.156C966.643 582.85 968.181 582.627 969.572 582.124C972.511 581.06 974.804 578.824 976.689 576.355L976.695 576.361C976.695 576.361 978.832 574.316 979.539 572.873C979.555 572.838 979.558 572.819 979.571 572.796C980.322 571.761 980.949 570.602 981.545 569.458C982.952 566.747 983.096 563.472 981.956 560.681ZM973.705 576.129C971.893 578.757 968.853 582.742 965.687 582.685C961.637 582.608 960.233 578.276 961.351 574.944C962.331 572.032 965.576 570.697 968.353 571.067C969.321 572.456 970.547 573.66 971.858 574.574L971.849 574.584C971.849 574.584 972.693 575.399 973.82 575.609L974.049 575.558L973.705 576.129ZM978.915 566.24C978.803 567.951 978.141 569.971 977.128 571.783C975.969 570.952 974.154 570.506 972.412 570.309C969.566 566.046 968.76 560.22 973.349 557.575C977.131 558.158 979.153 562.51 978.915 566.24Z" fill="#687FA3"></path><path d="M261.617 495.423C259.666 494.506 256.946 494.907 254.867 494.952C252.046 495.003 249.839 497.051 248.11 499.074C247.728 499.52 247.403 500.027 247.053 500.501C246.47 499.055 245.607 497.704 244.365 496.57C243.987 496.229 243.601 495.959 243.197 495.755C238.207 492.986 235.501 494.684 233.609 495.99C229.377 498.915 229.839 504.996 233.351 508.099C235.516 510.017 238.551 511.237 241.353 511.852C248.132 513.081 256.755 513.639 263.127 510.606C270.578 507.064 268.151 498.497 261.617 495.423ZM235.456 499.804C236.016 498.131 237.074 496.538 238.599 495.64C238.678 495.688 238.755 495.72 238.831 495.761C239.681 496.21 240.376 496.921 241.003 497.631C243.318 500.272 243.913 503.767 243.27 507.054C242.745 508.22 242.267 509.386 241.837 510.565C237.424 508.625 233.692 505.041 235.456 499.804ZM263.273 505.856C262.598 508.306 260.22 509.899 258.064 510.918C256.561 511.635 254.905 511.992 253.278 512.288C252.784 512.374 250.903 512.432 250.578 512.489C248.957 512.371 247.349 512.138 245.754 511.849C246.766 510.294 247.4 508.551 247.69 506.777C249.724 502.072 252.804 496.85 256.997 495.382C261.067 496.841 264.423 501.683 263.273 505.856Z" fill="#162D53"></path><path d="M221.495 507.536L215.461 547.655L257.974 554.055L264.008 513.936L221.495 507.536Z" fill="#1C3A6A"></path><path d="M263.979 513.936L257.932 554.054L264.9 555.105L270.946 514.987L263.979 513.936Z" fill="#304B77"></path><path d="M220.308 507.126L218.832 516.936L263.47 523.66L264.946 513.85L220.308 507.126Z" fill="#162D53"></path><path d="M264.913 513.818L263.438 523.632L270.756 524.732L272.231 514.919L264.913 513.818Z" fill="#2B436A"></path><path d="M239.823 510.08L234.896 542.77L242.157 543.865L247.084 511.175L239.823 510.08Z" fill="#18253C"></path><path d="M813.335 624.958C811.317 621.352 808.581 618.53 805.553 616.567C805.537 616.526 805.512 616.507 805.496 616.472C805.238 616.829 805.015 617.214 804.729 617.558C800.962 619.568 796.669 620.715 792.1 620.715C787.925 620.715 783.987 619.734 780.462 618.036C780.095 623.525 782.652 633.404 782.652 633.404L782.672 633.397C783.149 635.828 784.018 638.281 785.346 640.654C790.839 650.456 801.56 654.897 809.292 650.558C817.01 646.232 818.835 634.767 813.335 624.958Z" fill="#335C9D"></path><path d="M792.415 591.401C783.557 591.401 776.37 598.588 776.37 607.456C776.37 611.537 777.94 615.217 780.462 618.033C783.987 619.731 787.926 620.712 792.1 620.712C796.669 620.712 800.962 619.565 804.729 617.555C807.021 614.799 808.461 611.327 808.461 607.456C808.461 598.588 801.277 591.401 792.415 591.401Z" fill="#1C3A6A"></path><path d="M776.628 604.911C778.296 603.038 788.89 591.984 803.442 595.838C800.567 593.108 796.701 591.401 792.415 591.401C784.429 591.401 777.854 597.262 776.628 604.911Z" fill="#5D769B"></path><path d="M780.462 618.036C782.385 618.89 784.42 619.434 786.455 619.83C788.499 620.209 790.569 620.428 792.638 620.336C796.791 620.307 800.854 619.199 804.729 617.555C801.182 619.855 796.927 621.088 792.654 621.212C788.4 621.25 784.051 620.307 780.462 618.036Z" fill="#1D3458"></path><path d="M807.069 608.903C806.594 610.202 805.617 611.263 804.372 611.677C804.636 610.378 804.805 609.056 804.872 607.727C805.002 604.328 804.506 600.792 802.818 597.75C801.974 596.243 800.844 594.889 799.455 593.866C798.061 592.869 796.459 592.191 794.8 591.901C798.023 592.885 800.707 595.166 802.102 598.126C803.518 601.066 803.971 604.414 803.818 607.679C803.76 609.068 803.585 610.445 803.308 611.805C802.888 611.738 802.465 611.531 802.066 611.244C801.474 610.811 800.939 610.247 800.427 609.667C799.401 608.498 798.446 607.224 797.484 605.959C795.542 603.439 793.581 600.904 791.345 598.588C790.212 597.45 789.002 596.361 787.613 595.504C786.913 595.093 786.168 594.739 785.372 594.551C784.592 594.367 783.681 594.341 783.022 594.832C783.738 594.446 784.572 594.583 785.295 594.816C786.034 595.071 786.706 595.475 787.336 595.934C788.607 596.835 789.725 597.96 790.759 599.139C792.81 601.534 794.727 604.061 796.65 606.599C797.631 607.858 798.589 609.132 799.688 610.336C800.242 610.929 800.834 611.515 801.538 612.002C801.977 612.311 802.538 612.579 803.13 612.655C802.913 613.608 802.63 614.538 802.28 615.44C800.898 615.411 799.516 615.22 798.156 614.936C795.326 614.337 792.552 613.458 789.842 612.401C787.136 611.349 784.442 610.209 782.022 608.661C780.815 607.883 779.678 606.982 778.803 605.857C777.924 604.774 777.284 603.321 777.695 601.882C777.363 602.544 777.344 603.341 777.494 604.076C777.65 604.819 777.972 605.516 778.379 606.15C779.226 607.412 780.363 608.431 781.56 609.32C783.983 611.101 786.719 612.286 789.457 613.379C792.218 614.427 795.071 615.303 798.013 615.726C799.357 615.918 800.71 616.019 802.066 615.965C801.895 616.37 801.707 616.771 801.5 617.163C801.251 617.635 800.965 618.077 800.659 618.514C800.49 618.527 800.325 618.542 800.156 618.558C799.134 618.683 798.121 618.852 797.115 619.043C796.112 619.227 795.115 619.457 794.116 619.677C793.144 619.903 792.173 620.065 791.186 620.129C789.215 620.288 787.228 620.072 785.311 619.536C783.404 618.979 781.541 618.157 779.876 616.972C780.506 617.644 781.245 618.221 782.019 618.74C785.13 619.998 788.524 620.709 792.087 620.709C792.925 620.709 793.746 620.655 794.564 620.581L797.3 619.842C798.284 619.578 799.261 619.301 800.248 619.062L800.258 619.059C800.108 619.25 799.908 619.399 799.745 619.584C800.166 619.457 800.573 619.31 800.984 619.167C801.089 619.039 801.226 618.95 801.325 618.82C801.458 618.791 801.592 618.759 801.726 618.746C801.879 618.724 802.031 618.73 802.184 618.73C802.299 618.683 802.42 618.651 802.535 618.6C802.519 618.593 802.512 618.574 802.5 618.568C802.235 618.479 801.968 618.472 801.707 618.463C801.665 618.463 801.627 618.466 801.589 618.466C801.799 618.173 802.009 617.873 802.197 617.561C802.531 617.023 802.805 616.456 803.057 615.882C803.601 615.816 804.139 615.723 804.665 615.564C805.372 615.35 806.104 615.006 806.521 614.388C806.015 614.93 805.292 615.153 804.595 615.293C804.152 615.376 803.703 615.411 803.254 615.427C803.595 614.564 803.872 613.675 804.104 612.792C804.123 612.719 804.139 612.643 804.155 612.569C804.977 612.33 805.735 611.872 806.314 611.247C806.9 610.62 807.292 609.852 807.537 609.068C807.992 607.479 807.999 605.845 807.808 604.261C807.785 605.857 807.655 607.469 807.069 608.903Z" fill="#18253C"></path><path d="M460.095 579.642C458.532 579.658 456.074 579.741 454.322 579.98C446.161 581.105 441.716 579.391 437.605 576.868C435.048 575.3 431.947 574.415 429.966 573.966C397.007 567.884 364.884 562.383 334.036 557.454L334.055 557.464C334.055 557.464 320.85 555.702 313.154 556.496C307.689 557.059 301.171 557.544 297.704 555.116C293.338 552.036 289.68 550.79 287.352 550.261C117.057 524.989 -5 517.271 -5 517.271V755H1025.09C857.959 671.227 647.298 615.755 460.095 579.642Z" fill="url(#paint5_linear_2_1412)"></path><path d="M991.843 738.559C980.606 733.401 969.423 728.113 958.135 723.057C946.754 718.222 935.415 713.271 923.974 708.566C912.476 704.014 901.029 699.315 889.483 694.88C843.28 677.162 796.256 661.648 748.872 647.43C701.408 633.461 653.555 620.83 605.381 609.61L569.199 601.432L532.928 593.675L496.545 586.469L460.092 579.639L496.389 587.234L532.6 595.201L568.757 603.398L604.815 611.996C652.829 623.7 700.634 636.293 747.967 650.485C795.371 664.429 842.303 679.965 888.623 697.164C900.204 701.459 911.687 706.014 923.226 710.426C934.708 714.982 946.076 719.818 957.52 724.481C968.897 729.295 980.176 734.341 991.515 739.263L1025.09 755L991.843 738.559Z" fill="url(#paint6_linear_2_1412)"></path><path d="M317.538 556.301C315.978 556.308 314.481 556.365 313.154 556.502C310.097 556.817 306.725 557.088 303.725 556.855C342.159 567.273 364.862 626.943 374.233 659.182C383.222 690.095 390.059 723.032 394.236 755H410.157C405.97 722.991 398.965 690.185 390.154 659.182C380.831 626.36 357.322 565.036 317.538 556.301Z" fill="#335C9D"></path><path d="M465.518 580.703C463.712 580.353 461.923 579.808 460.095 579.643C458.538 579.502 456.074 579.741 454.322 579.98C451.53 580.366 449.196 580.398 447.139 580.197C488.355 592.736 524.512 637.443 545.155 671.702C560.901 697.837 575.195 726.558 586.416 754.997H602.334C591.514 727.594 577.688 700.108 562.866 674.725C543.318 641.247 504.381 595.902 465.518 580.703Z" fill="#335C9D"></path><path d="M791.24 747.823C791.24 747.823 790.877 748.256 790.199 748.807C789.361 746.408 787.069 740.133 783.907 733.997C785.123 731.267 785.413 727.925 784.162 723.889C778.643 706.043 771.215 709.072 771.345 713.344C771.329 713.427 771.304 714.029 771.17 714.87C766.773 711.42 758.621 705.406 752.539 703.198C752.539 703.198 750.922 693.931 743.251 678.239C743.257 678.235 743.264 678.235 743.267 678.229C748.951 670.571 741.614 656.888 729.263 654.085H729.247C728.31 652.686 727.33 651.253 726.327 649.81C722.369 649.612 696.481 648.873 663.696 640.45C630.899 632.012 603.97 618.342 603.97 618.342C603.97 618.342 610.192 658.733 613.243 668.678L613.236 668.688C611.24 672.077 606.196 684.071 622.197 691.978H622.203C625.511 699.006 629.568 706.298 634.504 713.258C634.504 713.258 629.055 720.123 629.667 727.536L627.221 724.733C624.33 721.066 623.824 730.034 635.035 745.124C636.284 746.803 637.809 748.272 639.49 749.562C640.191 751.059 641.076 752.933 642.079 755H664.607C667.428 753.458 667.266 750.346 661.276 745.8C661.987 743.035 665.371 739.913 678.169 742.117C699.137 745.73 730.574 747.769 745.072 732.522C756.449 720.547 760.356 727.836 761.697 734.198C761.165 734.669 760.637 735.144 760.06 735.587C759.118 736.319 758.424 739.626 761.875 742.869C763.343 744.252 768.562 744.252 773.666 742.436C774.994 744.577 777.351 748.329 779.318 751.219C778.86 751.158 778.455 751.155 777.968 751.066C777.968 751.066 779.105 752.592 779.955 754.994H792.644L791.24 747.823Z" fill="url(#paint7_linear_2_1412)"></path><path d="M757.691 582.073C757.433 560.745 737.032 558.834 737.032 558.834C738.615 564.218 741.936 579.681 720.78 562.086C699.637 544.518 666.601 541.131 645.384 541.096C624.181 541.058 624.837 531.233 624.837 531.233C608.107 531.504 598.459 541.937 598.459 541.937C595.841 550.01 608.982 562.128 608.982 562.128C597.87 586.352 603.97 618.339 603.97 618.339C603.97 618.339 630.899 632.008 663.697 640.447C696.494 648.87 722.391 649.609 726.333 649.807C744.143 616.902 739.497 592.372 739.497 592.372C747.718 590.735 757.691 582.073 757.691 582.073Z" fill="#06275C"></path><path d="M761.945 567.355C762.907 562.79 763.206 558.015 763.289 555.224C762.471 554.45 757.746 550.242 751.215 548.445C750.046 551.026 748.626 555.056 747.887 557.206C752.976 559.414 758.379 562.845 761.945 567.355Z" fill="#687FA3"></path><path d="M603.366 514.585C602.356 519.262 601.566 524.021 601.102 527.086C605.317 523.989 612.004 523.088 617.8 523.696C617.347 520.463 616.625 516.446 616.093 513.62C612.052 514.748 607.499 514.948 603.366 514.585Z" fill="#687FA3"></path><path d="M765.926 577.349C765.352 560.65 737.593 552.109 735.061 554.74C732.539 557.356 734.488 560.745 735.765 561.631C736.551 562.172 737.293 562.73 738.042 563.291C737.809 561.624 737.376 559.99 737.035 558.831C737.035 558.831 757.437 560.742 757.694 582.07C757.694 582.07 756.768 582.863 755.252 584.023C755.704 584.883 755.953 585.482 755.997 585.568C757.421 589.776 766.505 594.048 765.926 577.349Z" fill="#B5C0D2"></path><path d="M751.253 558.811C743.916 554.906 736.325 553.425 735.061 554.743C733.498 556.368 733.657 558.283 734.306 559.723C734.306 559.723 736.78 553.785 751.246 558.811H751.253Z" fill="#CED5E1"></path><path d="M598.459 541.94C598.459 541.94 608.107 531.507 624.837 531.237C624.837 531.237 624.748 532.718 625.881 534.556C639.946 524.368 604.471 517.713 597.933 530.708C591.387 543.702 595.205 552.66 596.972 549.529C597.284 548.955 597.898 548.261 598.659 547.496C598.061 545.566 597.918 543.654 598.459 541.94Z" fill="#B5C0D2"></path><path d="M792.345 541.255C782.512 527.497 770.084 526.455 764.9 526.77L765.219 525.139C765.305 524.709 765.203 524.263 764.948 523.903C764.69 523.546 764.295 523.314 763.859 523.253C763.859 523.253 756.242 522.262 750.912 527.086C750.695 527.286 750.533 527.538 750.45 527.818C749.364 531.504 749.648 533.428 750.406 538.564C751.052 542.972 749.205 545.476 749.138 545.566C748.801 545.999 748.705 546.572 748.89 547.091C749.078 547.608 749.511 547.99 750.049 548.108C757.831 549.812 763.413 555.333 763.471 555.39C763.776 555.696 764.184 555.858 764.601 555.858C764.802 555.858 765.002 555.82 765.193 555.744C765.785 555.505 766.18 554.938 766.193 554.297L766.413 543.447C767.992 543.301 769.256 542.625 770.584 541.918C771.399 541.482 772.316 540.988 773.482 540.523C774.166 540.249 775.087 540.109 776.217 540.109C781.914 540.109 790.352 543.613 790.434 543.645C791.087 543.922 791.851 543.727 792.294 543.17C792.737 542.619 792.759 541.835 792.345 541.255Z" fill="#051C42"></path><path d="M694.466 637.217C721.43 634.56 732.393 636.94 732.393 636.94C744.649 636.293 747.543 624.022 738.637 615.472C729.731 606.928 704.432 612.726 691.695 613.567C683.053 614.14 662.07 609.075 650.667 602.503C632.367 591.958 617.834 575.966 603.518 581.057C589.205 586.125 599 598.852 602.381 602.551C608.89 609.667 625.919 619.352 633.962 623.168C648.737 630.17 673.262 639.31 694.466 637.217Z" fill="#B5C0D2"></path><path d="M579.99 493.346C579.732 498.354 580.258 503.117 580.694 505.997C580.722 505.99 580.751 505.993 580.777 505.987C580.63 506.019 580.493 506.079 580.35 506.118C578.774 505.159 575.707 501.183 576.207 498.169C576.596 495.841 578.108 494.006 579.99 493.346Z" fill="#B5C0D2"></path><path d="M593.803 512.288C592.921 510.434 591.542 508.784 589.699 507.577C586.932 505.77 583.681 505.296 580.697 505.997C579.675 499.259 578.143 482.222 587.377 475.781C599.003 467.664 616.602 464.073 625.652 488.654C625.652 488.654 623.48 513.537 598.258 506.025C598.258 506.025 595.781 508.66 593.803 512.288Z" fill="#06275C"></path><path d="M602.722 507.067C601.321 506.838 599.834 506.494 598.258 506.025C598.258 506.025 603.353 496.159 609.584 491.317C609.584 491.317 603.197 503.881 602.722 507.067Z" fill="#051C42"></path><path d="M587.919 475.43C599.538 467.571 616.739 464.443 625.652 488.651C625.652 488.651 625.257 493.101 622.901 497.669C622.888 497.65 608.728 464.293 587.919 475.43Z" fill="#3C5987"></path><path d="M573.638 510.931C577.147 505.566 584.34 504.069 589.699 507.577C595.064 511.087 596.57 518.277 593.055 523.639C589.552 529.007 582.359 530.51 576.994 527.003C571.635 523.492 570.129 516.293 573.638 510.931Z" fill="#B5C0D2"></path><path d="M590.571 524.744C594.086 519.383 592.577 512.189 587.215 508.682C584.19 506.697 580.595 506.366 577.392 507.373C581.085 505.159 585.855 505.06 589.699 507.577C595.064 511.087 596.57 518.277 593.055 523.639C591.53 525.977 589.285 527.535 586.814 528.309C588.272 527.433 589.578 526.264 590.571 524.744Z" fill="#CED5E1"></path><path d="M593.803 512.288C595.784 508.66 598.258 506.025 598.258 506.025C623.48 513.534 625.652 488.654 625.652 488.654C625.254 487.574 624.821 486.615 624.391 485.64C624.41 485.634 624.41 485.618 624.429 485.612C629.415 483.898 631.571 487.38 632.119 489.836C633.287 495.067 632.319 501.189 623.719 509.555C616.456 516.624 600.563 515.334 593.883 512.489L593.803 512.288Z" fill="#B5C0D2"></path><path d="M622.907 497.663C625.254 493.095 625.648 488.654 625.648 488.654C625.25 487.574 624.817 486.615 624.387 485.64C624.406 485.634 624.407 485.618 624.426 485.612C629.412 483.898 631.568 487.38 632.115 489.836C632.994 493.764 632.66 498.208 628.788 503.725C629.788 497.373 622.907 497.663 622.907 497.663Z" fill="#CED5E1"></path><path d="M322.576 755C324.989 744.892 327.349 737.501 327.349 737.501L247.677 729.298C239.156 709.34 219.633 687.754 219.633 687.754C219.633 687.754 206.75 724.577 188.441 755H322.576Z" fill="url(#paint8_linear_2_1412)"></path><path d="M254.95 679.041C246.346 658.882 226.623 637.08 226.623 637.08L224.805 649.599C224.805 649.599 244.528 671.402 253.131 691.561L254.95 679.041Z" fill="#051F4A"></path><path d="M225.082 650.017L219.633 687.754C219.633 687.754 239.156 709.34 247.677 729.298L253.131 691.561C245.339 673.31 228.485 653.769 225.355 650.221C225.187 650.093 225.082 650.017 225.082 650.017Z" fill="#072C67"></path><path d="M253.131 691.561L247.677 729.298L327.349 737.501L332.803 699.77L332.797 699.767L253.131 691.561Z" fill="#06275C"></path><path d="M254.95 679.041L335.421 687.334L333.6 699.853L253.131 691.561L254.95 679.041Z" fill="#051C42"></path><path d="M335.421 687.334L254.953 679.041C246.349 658.882 226.626 637.08 226.626 637.08L307.101 645.369C307.101 645.369 326.814 667.178 335.421 687.334Z" fill="#1D3F74"></path><path d="M281.881 732.818L294.937 734.166L302.455 683.931L289.412 682.59L281.881 732.818Z" fill="#304B77"></path><path d="M237.471 710.923L244.935 660.931C243.082 658.134 241.203 655.474 239.375 653.008L231.912 702.997C233.727 705.469 235.612 708.123 237.471 710.923Z" fill="#304B77"></path><path d="M302.455 683.931C293.94 663.976 274.227 641.983 274.227 641.983L261.181 640.641C261.181 640.641 280.885 662.629 289.412 682.59L302.455 683.931Z" fill="#687FA3"></path><path d="M244.935 660.931L325.069 668.713C323.216 665.92 321.337 663.26 319.509 660.791L239.375 653.008C241.2 655.474 243.082 658.134 244.935 660.931Z" fill="#687FA3"></path><path d="M324.397 629.657C318.239 618.883 299.315 626.765 293.011 632.868C290.173 635.608 287.738 638.281 285.642 641.068C287.457 632.426 285.308 623.028 275.058 621.152C267.066 619.686 259.092 628.115 254.969 634.114C248.4 643.687 256.867 659.8 269.896 662.836C269.874 662.849 269.858 662.868 269.839 662.88C269.861 662.868 269.877 662.852 269.896 662.836C274.66 663.696 299.65 669.048 314.389 653.151C320.458 646.608 329.9 639.288 324.397 629.657ZM261.028 629.199C268.043 626.236 275.867 628.995 278.933 636.889C280.704 641.447 279.707 647.322 277.593 652.444C277.503 652.629 275.765 656.012 272.969 655.206C272.966 655.206 272.963 655.206 272.956 655.206C263.534 651.845 257.331 638.609 261.028 629.199ZM318.943 646.197C317.905 650.297 316.628 650.389 312.562 652.686C305.047 656.926 294.711 658.287 286.219 656.649C285.572 656.398 284.318 655.557 284.232 652.852C285.063 648.392 286.215 644.2 288.107 640.033C289.954 635.946 291.727 635.13 295.975 633.388C302.449 630.724 310.957 630.46 316.523 635.092C319.783 637.797 319.876 642.489 318.943 646.197Z" fill="#687FA3"></path></g><defs><radialGradient id="paint0_radial_2_1412" cx="0" cy="0" r="1" gradientUnits="userSpaceOnUse" gradientTransform="translate(605.305 243.028) scale(621.125 368.184)"><stop stop-color="#6AA9E1"></stop><stop offset="0.0151" stop-color="#68A7E0"></stop><stop offset="0.3141" stop-color="#4081CE"></stop><stop offset="0.5879" stop-color="#2466C2"></stop><stop offset="0.8255" stop-color="#1255BA"></stop><stop offset="1" stop-color="#0C4FB7"></stop></radialGradient><radialGradient id="paint1_radial_2_1412" cx="0" cy="0" r="1" gradientUnits="userSpaceOnUse" gradientTransform="translate(1042.95 149.722) scale(125.022 125.078)"><stop offset="0.0081" stop-color="#D9F3FF"></stop><stop offset="1" stop-color="#BBE7FF"></stop></radialGradient><linearGradient id="paint2_linear_2_1412" x1="889.562" y1="551.452" x2="879.772" y2="484.437" gradientUnits="userSpaceOnUse"><stop stop-color="#5199C9"></stop><stop offset="0.1547" stop-color="#559BCA"></stop><stop offset="0.3179" stop-color="#62A3CE"></stop><stop offset="0.485" stop-color="#77AFD5"></stop><stop offset="0.6549" stop-color="#95C1DE"></stop><stop offset="0.8268" stop-color="#BBD7EA"></stop><stop offset="0.9982" stop-color="#E8F2F9"></stop><stop offset="1" stop-color="#E9F2F9"></stop></linearGradient><linearGradient id="paint3_linear_2_1412" x1="311.241" y1="585.152" x2="319.668" y2="504.768" gradientUnits="userSpaceOnUse"><stop stop-color="#5199C9"></stop><stop offset="0.188" stop-color="#549BCA"></stop><stop offset="0.3496" stop-color="#5FA1CD"></stop><stop offset="0.5016" stop-color="#71ACD3"></stop><stop offset="0.6478" stop-color="#8ABADB"></stop><stop offset="0.7896" stop-color="#AACDE5"></stop><stop offset="0.9264" stop-color="#D1E4F1"></stop><stop offset="1" stop-color="#E9F2F9"></stop></linearGradient><linearGradient id="paint4_linear_2_1412" x1="846.31" y1="748.493" x2="846.31" y2="519.436" gradientUnits="userSpaceOnUse"><stop stop-color="#5199C9"></stop><stop offset="0.188" stop-color="#549BCA"></stop><stop offset="0.3496" stop-color="#5FA1CD"></stop><stop offset="0.5016" stop-color="#71ACD3"></stop><stop offset="0.6478" stop-color="#8ABADB"></stop><stop offset="0.7896" stop-color="#AACDE5"></stop><stop offset="0.9264" stop-color="#D1E4F1"></stop><stop offset="1" stop-color="#E9F2F9"></stop></linearGradient><linearGradient id="paint5_linear_2_1412" x1="510.046" y1="759.309" x2="510.046" y2="536.642" gradientUnits="userSpaceOnUse"><stop stop-color="#5199C9"></stop><stop offset="0.1812" stop-color="#559BCA"></stop><stop offset="0.343" stop-color="#5FA1CE"></stop><stop offset="0.4974" stop-color="#72ACD3"></stop><stop offset="0.6472" stop-color="#8BBBDB"></stop><stop offset="0.7938" stop-color="#ACCFE6"></stop><stop offset="0.9359" stop-color="#D4E6F2"></stop><stop offset="1" stop-color="#E9F2F9"></stop></linearGradient><linearGradient id="paint6_linear_2_1412" x1="460.094" y1="667.322" x2="1025.09" y2="667.322" gradientUnits="userSpaceOnUse"><stop stop-color="#BBE7FF"></stop><stop offset="0.5191" stop-color="#82BDE2"></stop><stop offset="1" stop-color="#5199C9"></stop></linearGradient><linearGradient id="paint7_linear_2_1412" x1="684.174" y1="647.119" x2="720.314" y2="788.682" gradientUnits="userSpaceOnUse"><stop offset="0.3237" stop-color="#335C9D"></stop><stop offset="0.9052" stop-color="#3583CE"></stop><stop offset="1" stop-color="#358AD6"></stop></linearGradient><linearGradient id="paint8_linear_2_1412" x1="259.855" y1="772.07" x2="255.63" y2="716.455" gradientUnits="userSpaceOnUse"><stop stop-color="#358AD6"></stop><stop offset="0.1004" stop-color="#3581CB"></stop><stop offset="0.4591" stop-color="#3366AA"></stop><stop offset="0.6544" stop-color="#335C9D"></stop></linearGradient><clipPath id="clip0_2_1412"><rect width="1210" height="755" fill="white" transform="translate(-5)"></rect></clipPath></defs></svg> 